<svg width="1104" height="204" viewBox="0 0 1104 204" fill="none" xmlns="http://www.w3.org/2000/svg">
<rect x="0.5" y="0.5" width="1103" height="203" rx="9.5" fill="white" stroke="#D5D5D5"/>
<path d="M20.688 32.416C20.688 31.328 20.9333 30.352 21.424 29.488C21.9147 28.6133 22.5813 27.9307 23.424 27.44C24.2773 26.9493 25.2213 26.704 26.256 26.704C27.472 26.704 28.5333 26.9973 29.44 27.584C30.3467 28.1707 31.008 29.0027 31.424 30.08H29.68C29.3707 29.408 28.9227 28.8907 28.336 28.528C27.76 28.1653 27.0667 27.984 26.256 27.984C25.4773 27.984 24.7787 28.1653 24.16 28.528C23.5413 28.8907 23.056 29.408 22.704 30.08C22.352 30.7413 22.176 31.52 22.176 32.416C22.176 33.3013 22.352 34.08 22.704 34.752C23.056 35.4133 23.5413 35.9253 24.16 36.288C24.7787 36.6507 25.4773 36.832 26.256 36.832C27.0667 36.832 27.76 36.656 28.336 36.304C28.9227 35.9413 29.3707 35.424 29.68 34.752H31.424C31.008 35.8187 30.3467 36.6453 29.44 37.232C28.5333 37.808 27.472 38.096 26.256 38.096C25.2213 38.096 24.2773 37.856 23.424 37.376C22.5813 36.8853 21.9147 36.208 21.424 35.344C20.9333 34.48 20.688 33.504 20.688 32.416ZM35.0474 30.656C35.3034 30.1547 35.666 29.7653 36.1354 29.488C36.6154 29.2107 37.1967 29.072 37.8794 29.072V30.576H37.4954C35.8634 30.576 35.0474 31.4613 35.0474 33.232V38H33.5914V29.232H35.0474V30.656ZM40.3121 27.808C40.0348 27.808 39.8001 27.712 39.6081 27.52C39.4161 27.328 39.3201 27.0933 39.3201 26.816C39.3201 26.5387 39.4161 26.304 39.6081 26.112C39.8001 25.92 40.0348 25.824 40.3121 25.824C40.5788 25.824 40.8028 25.92 40.9841 26.112C41.1761 26.304 41.2721 26.5387 41.2721 26.816C41.2721 27.0933 41.1761 27.328 40.9841 27.52C40.8028 27.712 40.5788 27.808 40.3121 27.808ZM41.0161 29.232V38H39.5601V29.232H41.0161ZM45.2736 30.432V35.6C45.2736 36.0267 45.3643 36.3307 45.5456 36.512C45.727 36.6827 46.0416 36.768 46.4896 36.768H47.5616V38H46.2496C45.439 38 44.831 37.8133 44.4256 37.44C44.0203 37.0667 43.8176 36.4533 43.8176 35.6V30.432H42.6816V29.232H43.8176V27.024H45.2736V29.232H47.5616V30.432H45.2736ZM50.0778 27.808C49.8004 27.808 49.5658 27.712 49.3738 27.52C49.1818 27.328 49.0858 27.0933 49.0858 26.816C49.0858 26.5387 49.1818 26.304 49.3738 26.112C49.5658 25.92 49.8004 25.824 50.0778 25.824C50.3444 25.824 50.5684 25.92 50.7498 26.112C50.9418 26.304 51.0378 26.5387 51.0378 26.816C51.0378 27.0933 50.9418 27.328 50.7498 27.52C50.5684 27.712 50.3444 27.808 50.0778 27.808ZM50.7818 29.232V38H49.3258V29.232H50.7818ZM52.7193 33.584C52.7193 32.688 52.9006 31.904 53.2633 31.232C53.6259 30.5493 54.1219 30.0213 54.7513 29.648C55.3913 29.2747 56.1059 29.088 56.8953 29.088C57.6526 29.088 58.3139 29.2587 58.8793 29.6C59.4553 29.9307 59.8766 30.3413 60.1433 30.832V29.232H61.6153V42.16H60.1433V36.384C59.8659 36.8747 59.4393 37.2907 58.8633 37.632C58.2873 37.9733 57.6153 38.144 56.8473 38.144C56.0793 38.144 55.3806 37.952 54.7513 37.568C54.1219 37.184 53.6259 36.6453 53.2633 35.952C52.9006 35.2587 52.7193 34.4693 52.7193 33.584ZM60.1433 33.6C60.1433 32.9387 60.0099 32.3627 59.7433 31.872C59.4766 31.3813 59.1139 31.008 58.6553 30.752C58.2073 30.4853 57.7113 30.352 57.1673 30.352C56.6233 30.352 56.1273 30.48 55.6793 30.736C55.2313 30.992 54.8739 31.3653 54.6073 31.856C54.3406 32.3467 54.2073 32.9227 54.2073 33.584C54.2073 34.256 54.3406 34.8427 54.6073 35.344C54.8739 35.8347 55.2313 36.2133 55.6793 36.48C56.1273 36.736 56.6233 36.864 57.1673 36.864C57.7113 36.864 58.2073 36.736 58.6553 36.48C59.1139 36.2133 59.4766 35.8347 59.7433 35.344C60.0099 34.8427 60.1433 34.2613 60.1433 33.6ZM71.8518 29.232V38H70.3958V36.704C70.1184 37.152 69.7291 37.504 69.2278 37.76C68.7371 38.0053 68.1931 38.128 67.5958 38.128C66.9131 38.128 66.2998 37.9893 65.7558 37.712C65.2118 37.424 64.7798 36.9973 64.4598 36.432C64.1504 35.8667 63.9958 35.1787 63.9958 34.368V29.232H65.4358V34.176C65.4358 35.04 65.6544 35.7067 66.0918 36.176C66.5291 36.6347 67.1264 36.864 67.8838 36.864C68.6624 36.864 69.2758 36.624 69.7238 36.144C70.1718 35.664 70.3958 34.9653 70.3958 34.048V29.232H71.8518ZM82.3101 33.28C82.3101 33.5573 82.2941 33.8507 82.2621 34.16H75.2541C75.3075 35.024 75.6008 35.7013 76.1341 36.192C76.6781 36.672 77.3341 36.912 78.1021 36.912C78.7315 36.912 79.2541 36.768 79.6701 36.48C80.0968 36.1813 80.3955 35.7867 80.5661 35.296H82.1341C81.8995 36.1387 81.4301 36.8267 80.7261 37.36C80.0221 37.8827 79.1475 38.144 78.1021 38.144C77.2701 38.144 76.5235 37.9573 75.8621 37.584C75.2115 37.2107 74.6995 36.6827 74.3261 36C73.9528 35.3067 73.7661 34.5067 73.7661 33.6C73.7661 32.6933 73.9475 31.8987 74.3101 31.216C74.6728 30.5333 75.1795 30.0107 75.8301 29.648C76.4915 29.2747 77.2488 29.088 78.1021 29.088C78.9341 29.088 79.6701 29.2693 80.3101 29.632C80.9501 29.9947 81.4408 30.496 81.7821 31.136C82.1341 31.7653 82.3101 32.48 82.3101 33.28ZM80.8061 32.976C80.8061 32.4213 80.6835 31.9467 80.4381 31.552C80.1928 31.1467 79.8568 30.8427 79.4301 30.64C79.0141 30.4267 78.5501 30.32 78.0381 30.32C77.3021 30.32 76.6728 30.5547 76.1501 31.024C75.6381 31.4933 75.3448 32.144 75.2701 32.976H80.8061ZM87.336 38.144C86.664 38.144 86.0613 38.032 85.528 37.808C84.9947 37.5733 84.5733 37.2533 84.264 36.848C83.9547 36.432 83.784 35.9573 83.752 35.424H85.256C85.2987 35.8613 85.5013 36.2187 85.864 36.496C86.2373 36.7733 86.7227 36.912 87.32 36.912C87.8747 36.912 88.312 36.7893 88.632 36.544C88.952 36.2987 89.112 35.9893 89.112 35.616C89.112 35.232 88.9413 34.9493 88.6 34.768C88.2587 34.576 87.7307 34.3893 87.016 34.208C86.3653 34.0373 85.832 33.8667 85.416 33.696C85.0107 33.5147 84.6587 33.2533 84.36 32.912C84.072 32.56 83.928 32.1013 83.928 31.536C83.928 31.088 84.0613 30.6773 84.328 30.304C84.5947 29.9307 84.9733 29.6373 85.464 29.424C85.9547 29.2 86.5147 29.088 87.144 29.088C88.1147 29.088 88.8987 29.3333 89.496 29.824C90.0933 30.3147 90.4133 30.9867 90.456 31.84H89C88.968 31.3813 88.7813 31.0133 88.44 30.736C88.1093 30.4587 87.6613 30.32 87.096 30.32C86.5733 30.32 86.1573 30.432 85.848 30.656C85.5387 30.88 85.384 31.1733 85.384 31.536C85.384 31.824 85.4747 32.064 85.656 32.256C85.848 32.4373 86.0827 32.5867 86.36 32.704C86.648 32.8107 87.0427 32.9333 87.544 33.072C88.1733 33.2427 88.6853 33.4133 89.08 33.584C89.4747 33.744 89.8107 33.9893 90.088 34.32C90.376 34.6507 90.5253 35.0827 90.536 35.616C90.536 36.096 90.4027 36.528 90.136 36.912C89.8693 37.296 89.4907 37.6 89 37.824C88.52 38.0373 87.9653 38.144 87.336 38.144ZM102.729 38L100.073 33.44H98.313V38H96.857V26.848H100.457C101.3 26.848 102.009 26.992 102.585 27.28C103.172 27.568 103.609 27.9573 103.897 28.448C104.185 28.9387 104.329 29.4987 104.329 30.128C104.329 30.896 104.105 31.5733 103.657 32.16C103.22 32.7467 102.558 33.136 101.673 33.328L104.473 38H102.729ZM98.313 32.272H100.457C101.246 32.272 101.838 32.08 102.233 31.696C102.628 31.3013 102.825 30.7787 102.825 30.128C102.825 29.4667 102.628 28.9547 102.233 28.592C101.849 28.2293 101.257 28.048 100.457 28.048H98.313V32.272ZM114.591 33.28C114.591 33.5573 114.575 33.8507 114.543 34.16H107.535C107.589 35.024 107.882 35.7013 108.415 36.192C108.959 36.672 109.615 36.912 110.383 36.912C111.013 36.912 111.535 36.768 111.951 36.48C112.378 36.1813 112.677 35.7867 112.847 35.296H114.415C114.181 36.1387 113.711 36.8267 113.007 37.36C112.303 37.8827 111.429 38.144 110.383 38.144C109.551 38.144 108.805 37.9573 108.143 37.584C107.493 37.2107 106.981 36.6827 106.607 36C106.234 35.3067 106.047 34.5067 106.047 33.6C106.047 32.6933 106.229 31.8987 106.591 31.216C106.954 30.5333 107.461 30.0107 108.111 29.648C108.773 29.2747 109.53 29.088 110.383 29.088C111.215 29.088 111.951 29.2693 112.591 29.632C113.231 29.9947 113.722 30.496 114.063 31.136C114.415 31.7653 114.591 32.48 114.591 33.28ZM113.087 32.976C113.087 32.4213 112.965 31.9467 112.719 31.552C112.474 31.1467 112.138 30.8427 111.711 30.64C111.295 30.4267 110.831 30.32 110.319 30.32C109.583 30.32 108.954 30.5547 108.431 31.024C107.919 31.4933 107.626 32.144 107.551 32.976H113.087ZM119.617 38.144C118.945 38.144 118.343 38.032 117.809 37.808C117.276 37.5733 116.855 37.2533 116.545 36.848C116.236 36.432 116.065 35.9573 116.033 35.424H117.537C117.58 35.8613 117.783 36.2187 118.145 36.496C118.519 36.7733 119.004 36.912 119.601 36.912C120.156 36.912 120.593 36.7893 120.913 36.544C121.233 36.2987 121.393 35.9893 121.393 35.616C121.393 35.232 121.223 34.9493 120.881 34.768C120.54 34.576 120.012 34.3893 119.297 34.208C118.647 34.0373 118.113 33.8667 117.697 33.696C117.292 33.5147 116.94 33.2533 116.641 32.912C116.353 32.56 116.209 32.1013 116.209 31.536C116.209 31.088 116.343 30.6773 116.609 30.304C116.876 29.9307 117.255 29.6373 117.745 29.424C118.236 29.2 118.796 29.088 119.425 29.088C120.396 29.088 121.18 29.3333 121.777 29.824C122.375 30.3147 122.695 30.9867 122.737 31.84H121.281C121.249 31.3813 121.063 31.0133 120.721 30.736C120.391 30.4587 119.943 30.32 119.377 30.32C118.855 30.32 118.439 30.432 118.129 30.656C117.82 30.88 117.665 31.1733 117.665 31.536C117.665 31.824 117.756 32.064 117.937 32.256C118.129 32.4373 118.364 32.5867 118.641 32.704C118.929 32.8107 119.324 32.9333 119.825 33.072C120.455 33.2427 120.967 33.4133 121.361 33.584C121.756 33.744 122.092 33.9893 122.369 34.32C122.657 34.6507 122.807 35.0827 122.817 35.616C122.817 36.096 122.684 36.528 122.417 36.912C122.151 37.296 121.772 37.6 121.281 37.824C120.801 38.0373 120.247 38.144 119.617 38.144ZM126.329 30.848C126.617 30.3467 127.043 29.9307 127.609 29.6C128.185 29.2587 128.851 29.088 129.609 29.088C130.387 29.088 131.091 29.2747 131.721 29.648C132.361 30.0213 132.862 30.5493 133.225 31.232C133.587 31.904 133.769 32.688 133.769 33.584C133.769 34.4693 133.587 35.2587 133.225 35.952C132.862 36.6453 132.361 37.184 131.721 37.568C131.091 37.952 130.387 38.144 129.609 38.144C128.862 38.144 128.201 37.9787 127.625 37.648C127.059 37.3067 126.627 36.8853 126.329 36.384V42.16H124.873V29.232H126.329V30.848ZM132.281 33.584C132.281 32.9227 132.147 32.3467 131.881 31.856C131.614 31.3653 131.251 30.992 130.793 30.736C130.345 30.48 129.849 30.352 129.305 30.352C128.771 30.352 128.275 30.4853 127.817 30.752C127.369 31.008 127.006 31.3867 126.729 31.888C126.462 32.3787 126.329 32.9493 126.329 33.6C126.329 34.2613 126.462 34.8427 126.729 35.344C127.006 35.8347 127.369 36.2133 127.817 36.48C128.275 36.736 128.771 36.864 129.305 36.864C129.849 36.864 130.345 36.736 130.793 36.48C131.251 36.2133 131.614 35.8347 131.881 35.344C132.147 34.8427 132.281 34.256 132.281 33.584ZM139.509 38.144C138.688 38.144 137.941 37.9573 137.269 37.584C136.608 37.2107 136.085 36.6827 135.701 36C135.328 35.3067 135.141 34.5067 135.141 33.6C135.141 32.704 135.333 31.9147 135.717 31.232C136.112 30.5387 136.645 30.0107 137.317 29.648C137.989 29.2747 138.741 29.088 139.573 29.088C140.405 29.088 141.157 29.2747 141.829 29.648C142.501 30.0107 143.029 30.5333 143.413 31.216C143.808 31.8987 144.005 32.6933 144.005 33.6C144.005 34.5067 143.802 35.3067 143.397 36C143.002 36.6827 142.464 37.2107 141.781 37.584C141.098 37.9573 140.341 38.144 139.509 38.144ZM139.509 36.864C140.032 36.864 140.522 36.7413 140.981 36.496C141.44 36.2507 141.808 35.8827 142.085 35.392C142.373 34.9013 142.517 34.304 142.517 33.6C142.517 32.896 142.378 32.2987 142.101 31.808C141.824 31.3173 141.461 30.9547 141.013 30.72C140.565 30.4747 140.08 30.352 139.557 30.352C139.024 30.352 138.533 30.4747 138.085 30.72C137.648 30.9547 137.296 31.3173 137.029 31.808C136.762 32.2987 136.629 32.896 136.629 33.6C136.629 34.3147 136.757 34.9173 137.013 35.408C137.28 35.8987 137.632 36.2667 138.069 36.512C138.506 36.7467 138.986 36.864 139.509 36.864ZM150.192 29.072C151.258 29.072 152.122 29.3973 152.784 30.048C153.445 30.688 153.776 31.616 153.776 32.832V38H152.336V33.04C152.336 32.1653 152.117 31.4987 151.68 31.04C151.242 30.5707 150.645 30.336 149.888 30.336C149.12 30.336 148.506 30.576 148.048 31.056C147.6 31.536 147.376 32.2347 147.376 33.152V38H145.92V29.232H147.376V30.48C147.664 30.032 148.053 29.6853 148.544 29.44C149.045 29.1947 149.594 29.072 150.192 29.072ZM155.61 33.584C155.61 32.688 155.791 31.904 156.154 31.232C156.517 30.5493 157.013 30.0213 157.642 29.648C158.282 29.2747 158.997 29.088 159.786 29.088C160.469 29.088 161.103 29.248 161.69 29.568C162.277 29.8773 162.725 30.288 163.034 30.8V26.16H164.506V38H163.034V36.352C162.746 36.8747 162.319 37.3067 161.754 37.648C161.189 37.9787 160.527 38.144 159.77 38.144C158.991 38.144 158.282 37.952 157.642 37.568C157.013 37.184 156.517 36.6453 156.154 35.952C155.791 35.2587 155.61 34.4693 155.61 33.584ZM163.034 33.6C163.034 32.9387 162.901 32.3627 162.634 31.872C162.367 31.3813 162.005 31.008 161.546 30.752C161.098 30.4853 160.602 30.352 160.058 30.352C159.514 30.352 159.018 30.48 158.57 30.736C158.122 30.992 157.765 31.3653 157.498 31.856C157.231 32.3467 157.098 32.9227 157.098 33.584C157.098 34.256 157.231 34.8427 157.498 35.344C157.765 35.8347 158.122 36.2133 158.57 36.48C159.018 36.736 159.514 36.864 160.058 36.864C160.602 36.864 161.098 36.736 161.546 36.48C162.005 36.2133 162.367 35.8347 162.634 35.344C162.901 34.8427 163.034 34.2613 163.034 33.6ZM174.966 33.28C174.966 33.5573 174.95 33.8507 174.918 34.16H167.91C167.964 35.024 168.257 35.7013 168.79 36.192C169.334 36.672 169.99 36.912 170.758 36.912C171.388 36.912 171.91 36.768 172.326 36.48C172.753 36.1813 173.052 35.7867 173.222 35.296H174.79C174.556 36.1387 174.086 36.8267 173.382 37.36C172.678 37.8827 171.804 38.144 170.758 38.144C169.926 38.144 169.18 37.9573 168.518 37.584C167.868 37.2107 167.356 36.6827 166.982 36C166.609 35.3067 166.422 34.5067 166.422 33.6C166.422 32.6933 166.604 31.8987 166.966 31.216C167.329 30.5333 167.836 30.0107 168.486 29.648C169.148 29.2747 169.905 29.088 170.758 29.088C171.59 29.088 172.326 29.2693 172.966 29.632C173.606 29.9947 174.097 30.496 174.438 31.136C174.79 31.7653 174.966 32.48 174.966 33.28ZM173.462 32.976C173.462 32.4213 173.34 31.9467 173.094 31.552C172.849 31.1467 172.513 30.8427 172.086 30.64C171.67 30.4267 171.206 30.32 170.694 30.32C169.958 30.32 169.329 30.5547 168.806 31.024C168.294 31.4933 168.001 32.144 167.926 32.976H173.462ZM176.344 33.584C176.344 32.688 176.526 31.904 176.888 31.232C177.251 30.5493 177.747 30.0213 178.376 29.648C179.016 29.2747 179.731 29.088 180.52 29.088C181.203 29.088 181.838 29.248 182.424 29.568C183.011 29.8773 183.459 30.288 183.768 30.8V26.16H185.24V38H183.768V36.352C183.48 36.8747 183.054 37.3067 182.488 37.648C181.923 37.9787 181.262 38.144 180.504 38.144C179.726 38.144 179.016 37.952 178.376 37.568C177.747 37.184 177.251 36.6453 176.888 35.952C176.526 35.2587 176.344 34.4693 176.344 33.584ZM183.768 33.6C183.768 32.9387 183.635 32.3627 183.368 31.872C183.102 31.3813 182.739 31.008 182.28 30.752C181.832 30.4853 181.336 30.352 180.792 30.352C180.248 30.352 179.752 30.48 179.304 30.736C178.856 30.992 178.499 31.3653 178.232 31.856C177.966 32.3467 177.832 32.9227 177.832 33.584C177.832 34.256 177.966 34.8427 178.232 35.344C178.499 35.8347 178.856 36.2133 179.304 36.48C179.752 36.736 180.248 36.864 180.792 36.864C181.336 36.864 181.832 36.736 182.28 36.48C182.739 36.2133 183.102 35.8347 183.368 35.344C183.635 34.8427 183.768 34.2613 183.768 33.6Z" fill="black"/>
<line x1="21" y1="64" x2="21" y2="150" stroke="black" stroke-width="2"/>
<path d="M22 64H1078C1081.31 64 1084 66.6863 1084 70V78C1084 81.3137 1081.31 84 1078 84H22V64Z" fill="#00A9FF"/>
<path d="M22 98H658.51C661.824 98 664.51 100.686 664.51 104V112C664.51 115.314 661.824 118 658.51 118H22V98Z" fill="#4CAF50"/>
<path d="M22 130H435.49C438.804 130 441.49 132.686 441.49 136V144C441.49 147.314 438.804 150 435.49 150H22V130Z" fill="#FFC107"/>
<circle cx="25" cy="175" r="5" fill="#00A9FF"/>
<path d="M34.516 175.688C34.516 175.016 34.652 174.428 34.924 173.924C35.196 173.412 35.568 173.016 36.04 172.736C36.52 172.456 37.052 172.316 37.636 172.316C38.212 172.316 38.712 172.44 39.136 172.688C39.56 172.936 39.876 173.248 40.084 173.624V172.424H41.188V179H40.084V177.776C39.868 178.16 39.544 178.48 39.112 178.736C38.688 178.984 38.192 179.108 37.624 179.108C37.04 179.108 36.512 178.964 36.04 178.676C35.568 178.388 35.196 177.984 34.924 177.464C34.652 176.944 34.516 176.352 34.516 175.688ZM40.084 175.7C40.084 175.204 39.984 174.772 39.784 174.404C39.584 174.036 39.312 173.756 38.968 173.564C38.632 173.364 38.26 173.264 37.852 173.264C37.444 173.264 37.072 173.36 36.736 173.552C36.4 173.744 36.132 174.024 35.932 174.392C35.732 174.76 35.632 175.192 35.632 175.688C35.632 176.192 35.732 176.632 35.932 177.008C36.132 177.376 36.4 177.66 36.736 177.86C37.072 178.052 37.444 178.148 37.852 178.148C38.26 178.148 38.632 178.052 38.968 177.86C39.312 177.66 39.584 177.376 39.784 177.008C39.984 176.632 40.084 176.196 40.084 175.7ZM44.1254 170.12V179H43.0334V170.12H44.1254ZM47.0785 170.12V179H45.9865V170.12H47.0785ZM51.7308 175.7C51.7308 175.02 51.8668 174.428 52.1388 173.924C52.4108 173.412 52.7868 173.016 53.2668 172.736C53.7548 172.456 54.3108 172.316 54.9348 172.316C55.7428 172.316 56.4068 172.512 56.9268 172.904C57.4548 173.296 57.8028 173.84 57.9708 174.536H56.7948C56.6828 174.136 56.4628 173.82 56.1348 173.588C55.8148 173.356 55.4148 173.24 54.9348 173.24C54.3108 173.24 53.8068 173.456 53.4228 173.888C53.0388 174.312 52.8468 174.916 52.8468 175.7C52.8468 176.492 53.0388 177.104 53.4228 177.536C53.8068 177.968 54.3108 178.184 54.9348 178.184C55.4148 178.184 55.8148 178.072 56.1348 177.848C56.4548 177.624 56.6748 177.304 56.7948 176.888H57.9708C57.7948 177.56 57.4428 178.1 56.9148 178.508C56.3868 178.908 55.7268 179.108 54.9348 179.108C54.3108 179.108 53.7548 178.968 53.2668 178.688C52.7868 178.408 52.4108 178.012 52.1388 177.5C51.8668 176.988 51.7308 176.388 51.7308 175.7ZM60.5199 173.492C60.7119 173.116 60.9839 172.824 61.3359 172.616C61.6959 172.408 62.1319 172.304 62.6439 172.304V173.432H62.3559C61.1319 173.432 60.5199 174.096 60.5199 175.424V179H59.4279V172.424H60.5199V173.492ZM64.4685 171.356C64.2605 171.356 64.0845 171.284 63.9405 171.14C63.7965 170.996 63.7245 170.82 63.7245 170.612C63.7245 170.404 63.7965 170.228 63.9405 170.084C64.0845 169.94 64.2605 169.868 64.4685 169.868C64.6685 169.868 64.8365 169.94 64.9725 170.084C65.1165 170.228 65.1885 170.404 65.1885 170.612C65.1885 170.82 65.1165 170.996 64.9725 171.14C64.8365 171.284 64.6685 171.356 64.4685 171.356ZM64.9965 172.424V179H63.9045V172.424H64.9965ZM68.1896 173.324V177.2C68.1896 177.52 68.2576 177.748 68.3936 177.884C68.5296 178.012 68.7656 178.076 69.1016 178.076H69.9056V179H68.9216C68.3136 179 67.8576 178.86 67.5536 178.58C67.2496 178.3 67.0976 177.84 67.0976 177.2V173.324H66.2456V172.424H67.0976V170.768H68.1896V172.424H69.9056V173.324H68.1896ZM71.7927 171.356C71.5847 171.356 71.4087 171.284 71.2647 171.14C71.1207 170.996 71.0487 170.82 71.0487 170.612C71.0487 170.404 71.1207 170.228 71.2647 170.084C71.4087 169.94 71.5847 169.868 71.7927 169.868C71.9927 169.868 72.1607 169.94 72.2967 170.084C72.4407 170.228 72.5127 170.404 72.5127 170.612C72.5127 170.82 72.4407 170.996 72.2967 171.14C72.1607 171.284 71.9927 171.356 71.7927 171.356ZM72.3207 172.424V179H71.2287V172.424H72.3207ZM73.7738 175.688C73.7738 175.016 73.9098 174.428 74.1818 173.924C74.4538 173.412 74.8258 173.016 75.2978 172.736C75.7778 172.456 76.3138 172.316 76.9058 172.316C77.4738 172.316 77.9698 172.444 78.3938 172.7C78.8258 172.948 79.1418 173.256 79.3418 173.624V172.424H80.4458V182.12H79.3418V177.788C79.1338 178.156 78.8138 178.468 78.3818 178.724C77.9498 178.98 77.4458 179.108 76.8698 179.108C76.2938 179.108 75.7698 178.964 75.2978 178.676C74.8258 178.388 74.4538 177.984 74.1818 177.464C73.9098 176.944 73.7738 176.352 73.7738 175.688ZM79.3418 175.7C79.3418 175.204 79.2418 174.772 79.0418 174.404C78.8418 174.036 78.5698 173.756 78.2258 173.564C77.8898 173.364 77.5178 173.264 77.1098 173.264C76.7018 173.264 76.3298 173.36 75.9938 173.552C75.6578 173.744 75.3898 174.024 75.1898 174.392C74.9898 174.76 74.8898 175.192 74.8898 175.688C74.8898 176.192 74.9898 176.632 75.1898 177.008C75.3898 177.376 75.6578 177.66 75.9938 177.86C76.3298 178.052 76.7018 178.148 77.1098 178.148C77.5178 178.148 77.8898 178.052 78.2258 177.86C78.5698 177.66 78.8418 177.376 79.0418 177.008C79.2418 176.632 79.3418 176.196 79.3418 175.7ZM88.1232 172.424V179H87.0312V178.028C86.8232 178.364 86.5312 178.628 86.1552 178.82C85.7872 179.004 85.3792 179.096 84.9312 179.096C84.4192 179.096 83.9592 178.992 83.5512 178.784C83.1432 178.568 82.8192 178.248 82.5792 177.824C82.3472 177.4 82.2312 176.884 82.2312 176.276V172.424H83.3112V176.132C83.3112 176.78 83.4752 177.28 83.8032 177.632C84.1312 177.976 84.5792 178.148 85.1472 178.148C85.7312 178.148 86.1912 177.968 86.5272 177.608C86.8632 177.248 87.0312 176.724 87.0312 176.036V172.424H88.1232ZM95.967 175.46C95.967 175.668 95.955 175.888 95.931 176.12H90.675C90.715 176.768 90.935 177.276 91.335 177.644C91.743 178.004 92.235 178.184 92.811 178.184C93.283 178.184 93.675 178.076 93.987 177.86C94.307 177.636 94.531 177.34 94.659 176.972H95.835C95.659 177.604 95.307 178.12 94.779 178.52C94.251 178.912 93.595 179.108 92.811 179.108C92.187 179.108 91.627 178.968 91.131 178.688C90.643 178.408 90.259 178.012 89.979 177.5C89.699 176.98 89.559 176.38 89.559 175.7C89.559 175.02 89.695 174.424 89.967 173.912C90.239 173.4 90.619 173.008 91.107 172.736C91.603 172.456 92.171 172.316 92.811 172.316C93.435 172.316 93.987 172.452 94.467 172.724C94.947 172.996 95.315 173.372 95.571 173.852C95.835 174.324 95.967 174.86 95.967 175.46ZM94.839 175.232C94.839 174.816 94.747 174.46 94.563 174.164C94.379 173.86 94.127 173.632 93.807 173.48C93.495 173.32 93.147 173.24 92.763 173.24C92.211 173.24 91.739 173.416 91.347 173.768C90.963 174.12 90.743 174.608 90.687 175.232H94.839ZM99.7364 179.108C99.2324 179.108 98.7804 179.024 98.3804 178.856C97.9804 178.68 97.6644 178.44 97.4324 178.136C97.2004 177.824 97.0724 177.468 97.0484 177.068H98.1764C98.2084 177.396 98.3604 177.664 98.6324 177.872C98.9124 178.08 99.2764 178.184 99.7244 178.184C100.14 178.184 100.468 178.092 100.708 177.908C100.948 177.724 101.068 177.492 101.068 177.212C101.068 176.924 100.94 176.712 100.684 176.576C100.428 176.432 100.032 176.292 99.4964 176.156C99.0084 176.028 98.6084 175.9 98.2964 175.772C97.9924 175.636 97.7284 175.44 97.5044 175.184C97.2884 174.92 97.1804 174.576 97.1804 174.152C97.1804 173.816 97.2804 173.508 97.4804 173.228C97.6804 172.948 97.9644 172.728 98.3324 172.568C98.7004 172.4 99.1204 172.316 99.5924 172.316C100.32 172.316 100.908 172.5 101.356 172.868C101.804 173.236 102.044 173.74 102.076 174.38H100.984C100.96 174.036 100.82 173.76 100.564 173.552C100.316 173.344 99.9804 173.24 99.5564 173.24C99.1644 173.24 98.8524 173.324 98.6204 173.492C98.3884 173.66 98.2724 173.88 98.2724 174.152C98.2724 174.368 98.3404 174.548 98.4764 174.692C98.6204 174.828 98.7964 174.94 99.0044 175.028C99.2204 175.108 99.5164 175.2 99.8924 175.304C100.364 175.432 100.748 175.56 101.044 175.688C101.34 175.808 101.592 175.992 101.8 176.24C102.016 176.488 102.128 176.812 102.136 177.212C102.136 177.572 102.036 177.896 101.836 178.184C101.636 178.472 101.352 178.7 100.984 178.868C100.624 179.028 100.208 179.108 99.7364 179.108Z" fill="black"/>
<circle cx="124" cy="175" r="5" fill="#4CAF50"/>
<path d="M135.016 173.492C135.208 173.116 135.48 172.824 135.832 172.616C136.192 172.408 136.628 172.304 137.14 172.304V173.432H136.852C135.628 173.432 135.016 174.096 135.016 175.424V179H133.924V172.424H135.016V173.492ZM144.401 175.46C144.401 175.668 144.389 175.888 144.365 176.12H139.109C139.149 176.768 139.369 177.276 139.769 177.644C140.177 178.004 140.669 178.184 141.245 178.184C141.717 178.184 142.109 178.076 142.421 177.86C142.741 177.636 142.965 177.34 143.093 176.972H144.269C144.093 177.604 143.741 178.12 143.213 178.52C142.685 178.912 142.029 179.108 141.245 179.108C140.621 179.108 140.061 178.968 139.565 178.688C139.077 178.408 138.693 178.012 138.413 177.5C138.133 176.98 137.993 176.38 137.993 175.7C137.993 175.02 138.129 174.424 138.401 173.912C138.673 173.4 139.053 173.008 139.541 172.736C140.037 172.456 140.605 172.316 141.245 172.316C141.869 172.316 142.421 172.452 142.901 172.724C143.381 172.996 143.749 173.372 144.005 173.852C144.269 174.324 144.401 174.86 144.401 175.46ZM143.273 175.232C143.273 174.816 143.181 174.46 142.997 174.164C142.813 173.86 142.561 173.632 142.241 173.48C141.929 173.32 141.581 173.24 141.197 173.24C140.645 173.24 140.173 173.416 139.781 173.768C139.397 174.12 139.177 174.608 139.121 175.232H143.273ZM148.17 179.108C147.666 179.108 147.214 179.024 146.814 178.856C146.414 178.68 146.098 178.44 145.866 178.136C145.634 177.824 145.506 177.468 145.482 177.068H146.61C146.642 177.396 146.794 177.664 147.066 177.872C147.346 178.08 147.71 178.184 148.158 178.184C148.574 178.184 148.902 178.092 149.142 177.908C149.382 177.724 149.502 177.492 149.502 177.212C149.502 176.924 149.374 176.712 149.118 176.576C148.862 176.432 148.466 176.292 147.93 176.156C147.442 176.028 147.042 175.9 146.73 175.772C146.426 175.636 146.162 175.44 145.938 175.184C145.722 174.92 145.614 174.576 145.614 174.152C145.614 173.816 145.714 173.508 145.914 173.228C146.114 172.948 146.398 172.728 146.766 172.568C147.134 172.4 147.554 172.316 148.026 172.316C148.754 172.316 149.342 172.5 149.79 172.868C150.238 173.236 150.478 173.74 150.51 174.38H149.418C149.394 174.036 149.254 173.76 148.998 173.552C148.75 173.344 148.414 173.24 147.99 173.24C147.598 173.24 147.286 173.324 147.054 173.492C146.822 173.66 146.706 173.88 146.706 174.152C146.706 174.368 146.774 174.548 146.91 174.692C147.054 174.828 147.23 174.94 147.438 175.028C147.654 175.108 147.95 175.2 148.326 175.304C148.798 175.432 149.182 175.56 149.478 175.688C149.774 175.808 150.026 175.992 150.234 176.24C150.45 176.488 150.562 176.812 150.57 177.212C150.57 177.572 150.47 177.896 150.27 178.184C150.07 178.472 149.786 178.7 149.418 178.868C149.058 179.028 148.642 179.108 148.17 179.108ZM153.204 173.636C153.42 173.26 153.74 172.948 154.164 172.7C154.596 172.444 155.096 172.316 155.664 172.316C156.248 172.316 156.776 172.456 157.247 172.736C157.727 173.016 158.104 173.412 158.376 173.924C158.648 174.428 158.784 175.016 158.784 175.688C158.784 176.352 158.648 176.944 158.376 177.464C158.104 177.984 157.727 178.388 157.247 178.676C156.776 178.964 156.248 179.108 155.664 179.108C155.104 179.108 154.608 178.984 154.176 178.736C153.752 178.48 153.428 178.164 153.204 177.788V182.12H152.112V172.424H153.204V173.636ZM157.668 175.688C157.668 175.192 157.568 174.76 157.368 174.392C157.168 174.024 156.896 173.744 156.552 173.552C156.216 173.36 155.844 173.264 155.436 173.264C155.036 173.264 154.664 173.364 154.32 173.564C153.984 173.756 153.712 174.04 153.504 174.416C153.304 174.784 153.204 175.212 153.204 175.7C153.204 176.196 153.304 176.632 153.504 177.008C153.712 177.376 153.984 177.66 154.32 177.86C154.664 178.052 155.036 178.148 155.436 178.148C155.844 178.148 156.216 178.052 156.552 177.86C156.896 177.66 157.168 177.376 157.368 177.008C157.568 176.632 157.668 176.192 157.668 175.688ZM163.089 179.108C162.473 179.108 161.913 178.968 161.409 178.688C160.913 178.408 160.521 178.012 160.233 177.5C159.953 176.98 159.813 176.38 159.813 175.7C159.813 175.028 159.957 174.436 160.245 173.924C160.541 173.404 160.941 173.008 161.445 172.736C161.949 172.456 162.513 172.316 163.137 172.316C163.761 172.316 164.325 172.456 164.829 172.736C165.333 173.008 165.729 173.4 166.017 173.912C166.313 174.424 166.461 175.02 166.461 175.7C166.461 176.38 166.309 176.98 166.005 177.5C165.709 178.012 165.305 178.408 164.793 178.688C164.281 178.968 163.713 179.108 163.089 179.108ZM163.089 178.148C163.481 178.148 163.849 178.056 164.193 177.872C164.537 177.688 164.813 177.412 165.021 177.044C165.237 176.676 165.345 176.228 165.345 175.7C165.345 175.172 165.241 174.724 165.033 174.356C164.825 173.988 164.553 173.716 164.217 173.54C163.881 173.356 163.517 173.264 163.125 173.264C162.725 173.264 162.357 173.356 162.021 173.54C161.693 173.716 161.429 173.988 161.229 174.356C161.029 174.724 160.929 175.172 160.929 175.7C160.929 176.236 161.025 176.688 161.217 177.056C161.417 177.424 161.681 177.7 162.009 177.884C162.337 178.06 162.697 178.148 163.089 178.148ZM171.101 172.304C171.901 172.304 172.549 172.548 173.045 173.036C173.541 173.516 173.789 174.212 173.789 175.124V179H172.709V175.28C172.709 174.624 172.545 174.124 172.217 173.78C171.889 173.428 171.441 173.252 170.873 173.252C170.297 173.252 169.837 173.432 169.493 173.792C169.157 174.152 168.989 174.676 168.989 175.364V179H167.897V172.424H168.989V173.36C169.205 173.024 169.497 172.764 169.865 172.58C170.241 172.396 170.653 172.304 171.101 172.304ZM175.164 175.688C175.164 175.016 175.3 174.428 175.572 173.924C175.844 173.412 176.216 173.016 176.688 172.736C177.168 172.456 177.704 172.316 178.296 172.316C178.808 172.316 179.284 172.436 179.724 172.676C180.164 172.908 180.5 173.216 180.732 173.6V170.12H181.836V179H180.732V177.764C180.516 178.156 180.196 178.48 179.772 178.736C179.348 178.984 178.852 179.108 178.284 179.108C177.7 179.108 177.168 178.964 176.688 178.676C176.216 178.388 175.844 177.984 175.572 177.464C175.3 176.944 175.164 176.352 175.164 175.688ZM180.732 175.7C180.732 175.204 180.632 174.772 180.432 174.404C180.232 174.036 179.96 173.756 179.616 173.564C179.28 173.364 178.908 173.264 178.5 173.264C178.092 173.264 177.72 173.36 177.384 173.552C177.048 173.744 176.78 174.024 176.58 174.392C176.38 174.76 176.28 175.192 176.28 175.688C176.28 176.192 176.38 176.632 176.58 177.008C176.78 177.376 177.048 177.66 177.384 177.86C177.72 178.052 178.092 178.148 178.5 178.148C178.908 178.148 179.28 178.052 179.616 177.86C179.96 177.66 180.232 177.376 180.432 177.008C180.632 176.632 180.732 176.196 180.732 175.7ZM189.682 175.46C189.682 175.668 189.67 175.888 189.646 176.12H184.39C184.43 176.768 184.65 177.276 185.05 177.644C185.458 178.004 185.95 178.184 186.526 178.184C186.998 178.184 187.39 178.076 187.702 177.86C188.022 177.636 188.246 177.34 188.374 176.972H189.55C189.374 177.604 189.022 178.12 188.494 178.52C187.966 178.912 187.31 179.108 186.526 179.108C185.902 179.108 185.342 178.968 184.846 178.688C184.358 178.408 183.974 178.012 183.694 177.5C183.414 176.98 183.274 176.38 183.274 175.7C183.274 175.02 183.41 174.424 183.682 173.912C183.954 173.4 184.334 173.008 184.822 172.736C185.318 172.456 185.886 172.316 186.526 172.316C187.15 172.316 187.702 172.452 188.182 172.724C188.662 172.996 189.03 173.372 189.286 173.852C189.55 174.324 189.682 174.86 189.682 175.46ZM188.554 175.232C188.554 174.816 188.462 174.46 188.278 174.164C188.094 173.86 187.842 173.632 187.522 173.48C187.21 173.32 186.862 173.24 186.478 173.24C185.926 173.24 185.454 173.416 185.062 173.768C184.678 174.12 184.458 174.608 184.402 175.232H188.554ZM190.715 175.688C190.715 175.016 190.851 174.428 191.123 173.924C191.395 173.412 191.767 173.016 192.239 172.736C192.719 172.456 193.255 172.316 193.847 172.316C194.359 172.316 194.835 172.436 195.275 172.676C195.715 172.908 196.051 173.216 196.283 173.6V170.12H197.387V179H196.283V177.764C196.067 178.156 195.747 178.48 195.323 178.736C194.899 178.984 194.403 179.108 193.835 179.108C193.251 179.108 192.719 178.964 192.239 178.676C191.767 178.388 191.395 177.984 191.123 177.464C190.851 176.944 190.715 176.352 190.715 175.688ZM196.283 175.7C196.283 175.204 196.183 174.772 195.983 174.404C195.783 174.036 195.511 173.756 195.167 173.564C194.831 173.364 194.459 173.264 194.051 173.264C193.643 173.264 193.271 173.36 192.935 173.552C192.599 173.744 192.331 174.024 192.131 174.392C191.931 174.76 191.831 175.192 191.831 175.688C191.831 176.192 191.931 176.632 192.131 177.008C192.331 177.376 192.599 177.66 192.935 177.86C193.271 178.052 193.643 178.148 194.051 178.148C194.459 178.148 194.831 178.052 195.167 177.86C195.511 177.66 195.783 177.376 195.983 177.008C196.183 176.632 196.283 176.196 196.283 175.7Z" fill="black"/>
<circle cx="220" cy="175" r="5" fill="#FFC107"/>
<path d="M233.128 172.304C233.928 172.304 234.576 172.548 235.072 173.036C235.568 173.516 235.816 174.212 235.816 175.124V179H234.736V175.28C234.736 174.624 234.572 174.124 234.244 173.78C233.916 173.428 233.468 173.252 232.9 173.252C232.324 173.252 231.864 173.432 231.52 173.792C231.184 174.152 231.016 174.676 231.016 175.364V179H229.924V172.424H231.016V173.36C231.232 173.024 231.524 172.764 231.892 172.58C232.268 172.396 232.68 172.304 233.128 172.304ZM240.468 179.108C239.852 179.108 239.292 178.968 238.788 178.688C238.292 178.408 237.9 178.012 237.612 177.5C237.332 176.98 237.192 176.38 237.192 175.7C237.192 175.028 237.336 174.436 237.624 173.924C237.92 173.404 238.32 173.008 238.824 172.736C239.328 172.456 239.892 172.316 240.516 172.316C241.14 172.316 241.704 172.456 242.208 172.736C242.712 173.008 243.108 173.4 243.396 173.912C243.692 174.424 243.84 175.02 243.84 175.7C243.84 176.38 243.688 176.98 243.384 177.5C243.088 178.012 242.684 178.408 242.172 178.688C241.66 178.968 241.092 179.108 240.468 179.108ZM240.468 178.148C240.86 178.148 241.228 178.056 241.572 177.872C241.916 177.688 242.192 177.412 242.4 177.044C242.616 176.676 242.724 176.228 242.724 175.7C242.724 175.172 242.62 174.724 242.412 174.356C242.204 173.988 241.932 173.716 241.596 173.54C241.26 173.356 240.896 173.264 240.504 173.264C240.104 173.264 239.736 173.356 239.4 173.54C239.072 173.716 238.808 173.988 238.608 174.356C238.408 174.724 238.308 175.172 238.308 175.7C238.308 176.236 238.404 176.688 238.596 177.056C238.796 177.424 239.06 177.7 239.388 177.884C239.716 178.06 240.076 178.148 240.468 178.148ZM246.608 173.324V177.2C246.608 177.52 246.676 177.748 246.812 177.884C246.948 178.012 247.184 178.076 247.52 178.076H248.324V179H247.34C246.732 179 246.276 178.86 245.972 178.58C245.668 178.3 245.516 177.84 245.516 177.2V173.324H244.664V172.424H245.516V170.768H246.608V172.424H248.324V173.324H246.608ZM253.938 173.492C254.13 173.116 254.402 172.824 254.754 172.616C255.114 172.408 255.55 172.304 256.062 172.304V173.432H255.774C254.55 173.432 253.938 174.096 253.938 175.424V179H252.846V172.424H253.938V173.492ZM263.322 175.46C263.322 175.668 263.31 175.888 263.286 176.12H258.03C258.07 176.768 258.29 177.276 258.69 177.644C259.098 178.004 259.59 178.184 260.166 178.184C260.638 178.184 261.03 178.076 261.342 177.86C261.662 177.636 261.886 177.34 262.014 176.972H263.19C263.014 177.604 262.662 178.12 262.134 178.52C261.606 178.912 260.95 179.108 260.166 179.108C259.542 179.108 258.982 178.968 258.486 178.688C257.998 178.408 257.614 178.012 257.334 177.5C257.054 176.98 256.914 176.38 256.914 175.7C256.914 175.02 257.05 174.424 257.322 173.912C257.594 173.4 257.974 173.008 258.462 172.736C258.958 172.456 259.526 172.316 260.166 172.316C260.79 172.316 261.342 172.452 261.822 172.724C262.302 172.996 262.67 173.372 262.926 173.852C263.19 174.324 263.322 174.86 263.322 175.46ZM262.194 175.232C262.194 174.816 262.102 174.46 261.918 174.164C261.734 173.86 261.482 173.632 261.162 173.48C260.85 173.32 260.502 173.24 260.118 173.24C259.566 173.24 259.094 173.416 258.702 173.768C258.318 174.12 258.098 174.608 258.042 175.232H262.194ZM267.092 179.108C266.588 179.108 266.136 179.024 265.736 178.856C265.336 178.68 265.02 178.44 264.788 178.136C264.556 177.824 264.428 177.468 264.404 177.068H265.532C265.564 177.396 265.716 177.664 265.988 177.872C266.268 178.08 266.632 178.184 267.08 178.184C267.496 178.184 267.824 178.092 268.064 177.908C268.304 177.724 268.424 177.492 268.424 177.212C268.424 176.924 268.296 176.712 268.04 176.576C267.784 176.432 267.388 176.292 266.852 176.156C266.364 176.028 265.964 175.9 265.652 175.772C265.348 175.636 265.084 175.44 264.86 175.184C264.644 174.92 264.536 174.576 264.536 174.152C264.536 173.816 264.636 173.508 264.836 173.228C265.036 172.948 265.32 172.728 265.688 172.568C266.056 172.4 266.476 172.316 266.948 172.316C267.676 172.316 268.264 172.5 268.712 172.868C269.16 173.236 269.4 173.74 269.432 174.38H268.34C268.316 174.036 268.176 173.76 267.92 173.552C267.672 173.344 267.336 173.24 266.912 173.24C266.52 173.24 266.208 173.324 265.976 173.492C265.744 173.66 265.628 173.88 265.628 174.152C265.628 174.368 265.696 174.548 265.832 174.692C265.976 174.828 266.152 174.94 266.36 175.028C266.576 175.108 266.872 175.2 267.248 175.304C267.72 175.432 268.104 175.56 268.4 175.688C268.696 175.808 268.948 175.992 269.156 176.24C269.372 176.488 269.484 176.812 269.492 177.212C269.492 177.572 269.392 177.896 269.192 178.184C268.992 178.472 268.708 178.7 268.34 178.868C267.98 179.028 267.564 179.108 267.092 179.108ZM272.125 173.636C272.341 173.26 272.661 172.948 273.085 172.7C273.517 172.444 274.017 172.316 274.585 172.316C275.169 172.316 275.697 172.456 276.169 172.736C276.649 173.016 277.025 173.412 277.297 173.924C277.569 174.428 277.705 175.016 277.705 175.688C277.705 176.352 277.569 176.944 277.297 177.464C277.025 177.984 276.649 178.388 276.169 178.676C275.697 178.964 275.169 179.108 274.585 179.108C274.025 179.108 273.529 178.984 273.097 178.736C272.673 178.48 272.349 178.164 272.125 177.788V182.12H271.033V172.424H272.125V173.636ZM276.589 175.688C276.589 175.192 276.489 174.76 276.289 174.392C276.089 174.024 275.817 173.744 275.473 173.552C275.137 173.36 274.765 173.264 274.357 173.264C273.957 173.264 273.585 173.364 273.241 173.564C272.905 173.756 272.633 174.04 272.425 174.416C272.225 174.784 272.125 175.212 272.125 175.7C272.125 176.196 272.225 176.632 272.425 177.008C272.633 177.376 272.905 177.66 273.241 177.86C273.585 178.052 273.957 178.148 274.357 178.148C274.765 178.148 275.137 178.052 275.473 177.86C275.817 177.66 276.089 177.376 276.289 177.008C276.489 176.632 276.589 176.192 276.589 175.688ZM282.011 179.108C281.395 179.108 280.835 178.968 280.331 178.688C279.835 178.408 279.443 178.012 279.155 177.5C278.875 176.98 278.735 176.38 278.735 175.7C278.735 175.028 278.879 174.436 279.167 173.924C279.463 173.404 279.863 173.008 280.367 172.736C280.871 172.456 281.435 172.316 282.059 172.316C282.683 172.316 283.247 172.456 283.751 172.736C284.255 173.008 284.651 173.4 284.939 173.912C285.235 174.424 285.383 175.02 285.383 175.7C285.383 176.38 285.231 176.98 284.927 177.5C284.631 178.012 284.227 178.408 283.715 178.688C283.203 178.968 282.635 179.108 282.011 179.108ZM282.011 178.148C282.403 178.148 282.771 178.056 283.115 177.872C283.459 177.688 283.735 177.412 283.943 177.044C284.159 176.676 284.267 176.228 284.267 175.7C284.267 175.172 284.163 174.724 283.955 174.356C283.747 173.988 283.475 173.716 283.139 173.54C282.803 173.356 282.439 173.264 282.047 173.264C281.647 173.264 281.279 173.356 280.943 173.54C280.615 173.716 280.351 173.988 280.151 174.356C279.951 174.724 279.851 175.172 279.851 175.7C279.851 176.236 279.947 176.688 280.139 177.056C280.339 177.424 280.603 177.7 280.931 177.884C281.259 178.06 281.619 178.148 282.011 178.148ZM290.023 172.304C290.823 172.304 291.471 172.548 291.967 173.036C292.463 173.516 292.711 174.212 292.711 175.124V179H291.631V175.28C291.631 174.624 291.467 174.124 291.139 173.78C290.811 173.428 290.363 173.252 289.795 173.252C289.219 173.252 288.759 173.432 288.415 173.792C288.079 174.152 287.911 174.676 287.911 175.364V179H286.819V172.424H287.911V173.36C288.127 173.024 288.419 172.764 288.787 172.58C289.163 172.396 289.575 172.304 290.023 172.304ZM294.086 175.688C294.086 175.016 294.222 174.428 294.494 173.924C294.766 173.412 295.138 173.016 295.61 172.736C296.09 172.456 296.626 172.316 297.218 172.316C297.73 172.316 298.206 172.436 298.646 172.676C299.086 172.908 299.422 173.216 299.654 173.6V170.12H300.758V179H299.654V177.764C299.438 178.156 299.118 178.48 298.694 178.736C298.27 178.984 297.774 179.108 297.206 179.108C296.622 179.108 296.09 178.964 295.61 178.676C295.138 178.388 294.766 177.984 294.494 177.464C294.222 176.944 294.086 176.352 294.086 175.688ZM299.654 175.7C299.654 175.204 299.554 174.772 299.354 174.404C299.154 174.036 298.882 173.756 298.538 173.564C298.202 173.364 297.83 173.264 297.422 173.264C297.014 173.264 296.642 173.36 296.306 173.552C295.97 173.744 295.702 174.024 295.502 174.392C295.302 174.76 295.202 175.192 295.202 175.688C295.202 176.192 295.302 176.632 295.502 177.008C295.702 177.376 295.97 177.66 296.306 177.86C296.642 178.052 297.014 178.148 297.422 178.148C297.83 178.148 298.202 178.052 298.538 177.86C298.882 177.66 299.154 177.376 299.354 177.008C299.554 176.632 299.654 176.196 299.654 175.7ZM308.604 175.46C308.604 175.668 308.592 175.888 308.568 176.12H303.312C303.352 176.768 303.572 177.276 303.972 177.644C304.38 178.004 304.872 178.184 305.448 178.184C305.92 178.184 306.312 178.076 306.624 177.86C306.944 177.636 307.168 177.34 307.296 176.972H308.472C308.296 177.604 307.944 178.12 307.416 178.52C306.888 178.912 306.232 179.108 305.448 179.108C304.824 179.108 304.264 178.968 303.768 178.688C303.28 178.408 302.896 178.012 302.616 177.5C302.336 176.98 302.196 176.38 302.196 175.7C302.196 175.02 302.332 174.424 302.604 173.912C302.876 173.4 303.256 173.008 303.744 172.736C304.24 172.456 304.808 172.316 305.448 172.316C306.072 172.316 306.624 172.452 307.104 172.724C307.584 172.996 307.952 173.372 308.208 173.852C308.472 174.324 308.604 174.86 308.604 175.46ZM307.476 175.232C307.476 174.816 307.384 174.46 307.2 174.164C307.016 173.86 306.764 173.632 306.444 173.48C306.132 173.32 305.784 173.24 305.4 173.24C304.848 173.24 304.376 173.416 303.984 173.768C303.6 174.12 303.38 174.608 303.324 175.232H307.476ZM309.637 175.688C309.637 175.016 309.773 174.428 310.045 173.924C310.317 173.412 310.689 173.016 311.161 172.736C311.641 172.456 312.177 172.316 312.769 172.316C313.281 172.316 313.757 172.436 314.197 172.676C314.637 172.908 314.973 173.216 315.205 173.6V170.12H316.309V179H315.205V177.764C314.989 178.156 314.669 178.48 314.245 178.736C313.821 178.984 313.325 179.108 312.757 179.108C312.173 179.108 311.641 178.964 311.161 178.676C310.689 178.388 310.317 177.984 310.045 177.464C309.773 176.944 309.637 176.352 309.637 175.688ZM315.205 175.7C315.205 175.204 315.105 174.772 314.905 174.404C314.705 174.036 314.433 173.756 314.089 173.564C313.753 173.364 313.381 173.264 312.973 173.264C312.565 173.264 312.193 173.36 311.857 173.552C311.521 173.744 311.253 174.024 311.053 174.392C310.853 174.76 310.753 175.192 310.753 175.688C310.753 176.192 310.853 176.632 311.053 177.008C311.253 177.376 311.521 177.66 311.857 177.86C312.193 178.052 312.565 178.148 312.973 178.148C313.381 178.148 313.753 178.052 314.089 177.86C314.433 177.66 314.705 177.376 314.905 177.008C315.105 176.632 315.205 176.196 315.205 175.7ZM327.018 172.424L323.058 182.096H321.93L323.226 178.928L320.574 172.424H321.786L323.85 177.752L325.89 172.424H327.018ZM334.115 175.46C334.115 175.668 334.103 175.888 334.079 176.12H328.823C328.863 176.768 329.083 177.276 329.483 177.644C329.891 178.004 330.383 178.184 330.959 178.184C331.431 178.184 331.823 178.076 332.135 177.86C332.455 177.636 332.679 177.34 332.807 176.972H333.983C333.807 177.604 333.455 178.12 332.927 178.52C332.399 178.912 331.743 179.108 330.959 179.108C330.335 179.108 329.775 178.968 329.279 178.688C328.791 178.408 328.407 178.012 328.127 177.5C327.847 176.98 327.707 176.38 327.707 175.7C327.707 175.02 327.843 174.424 328.115 173.912C328.387 173.4 328.767 173.008 329.255 172.736C329.751 172.456 330.319 172.316 330.959 172.316C331.583 172.316 332.135 172.452 332.615 172.724C333.095 172.996 333.463 173.372 333.719 173.852C333.983 174.324 334.115 174.86 334.115 175.46ZM332.987 175.232C332.987 174.816 332.895 174.46 332.711 174.164C332.527 173.86 332.275 173.632 331.955 173.48C331.643 173.32 331.295 173.24 330.911 173.24C330.359 173.24 329.887 173.416 329.495 173.768C329.111 174.12 328.891 174.608 328.835 175.232H332.987ZM336.889 173.324V177.2C336.889 177.52 336.957 177.748 337.093 177.884C337.229 178.012 337.465 178.076 337.801 178.076H338.605V179H337.621C337.013 179 336.557 178.86 336.253 178.58C335.949 178.3 335.797 177.84 335.797 177.2V173.324H334.945V172.424H335.797V170.768H336.889V172.424H338.605V173.324H336.889Z" fill="black"/>
</svg>
