<svg width="12" height="13" viewBox="0 0 12 13" fill="none" xmlns="http://www.w3.org/2000/svg">
<g id="heroicons:arrow-down-20-solid">
<path id="Vector" fill-rule="evenodd" clip-rule="evenodd" d="M10.1997 6.49984C10.1997 6.61919 10.1523 6.73365 10.0679 6.81804C9.98351 6.90243 9.86905 6.94984 9.74971 6.94984H3.36691L5.86171 9.32584C5.90631 9.3663 5.94234 9.41531 5.96767 9.46995C5.99299 9.52459 6.00708 9.58376 6.00911 9.64395C6.01115 9.70414 6.00108 9.76413 5.9795 9.82035C5.95793 9.87658 5.92529 9.9279 5.88351 9.97129C5.84174 10.0147 5.79168 10.0492 5.73631 10.0729C5.68094 10.0966 5.62138 10.1089 5.56115 10.1091C5.50093 10.1094 5.44127 10.0975 5.38571 10.0743C5.33015 10.051 5.27982 10.0169 5.23771 9.97384L1.93771 6.82384C1.89415 6.78186 1.85951 6.73153 1.83585 6.67587C1.81219 6.6202 1.8 6.56033 1.8 6.49984C1.8 6.43935 1.81219 6.37948 1.83585 6.32381C1.85951 6.26814 1.89415 6.21782 1.93771 6.17584L5.23771 3.02584C5.27982 2.98279 5.33015 2.94863 5.38571 2.92539C5.44127 2.90215 5.50093 2.8903 5.56115 2.89054C5.62138 2.89078 5.68094 2.9031 5.73631 2.92678C5.79168 2.95046 5.84174 2.98501 5.88351 3.02839C5.92529 3.07178 5.95793 3.1231 5.9795 3.17933C6.00108 3.23555 6.01115 3.29554 6.00911 3.35573C6.00708 3.41592 5.99299 3.47509 5.96767 3.52973C5.94234 3.58437 5.90631 3.63338 5.86171 3.67384L3.36691 6.04984H9.74971C9.86905 6.04984 9.98351 6.09725 10.0679 6.18164C10.1523 6.26603 10.1997 6.38049 10.1997 6.49984Z" fill="#00A9FF"/>
</g>
</svg>
