<svg width="179" height="160" viewBox="0 0 179 160" fill="none" xmlns="http://www.w3.org/2000/svg">
<g clip-path="url(#clip0_19_78)">
<path d="M176.675 61.1872C176.611 61.1873 176.548 61.1677 176.496 61.1312L90.0165 0.904351C89.7533 0.721923 89.4406 0.624429 89.1204 0.624976C88.8002 0.625522 88.4878 0.72408 88.2252 0.907404L2.36858 61.1306C2.30067 61.1782 2.21662 61.1969 2.13492 61.1826C2.05322 61.1683 1.98056 61.122 1.93293 61.0541C1.8853 60.9862 1.86659 60.9022 1.88093 60.8205C1.89527 60.7388 1.94148 60.6661 2.00939 60.6185L87.8661 0.395299C88.2337 0.138683 88.6711 0.000739727 89.1194 2.96675e-06C89.5677 -0.000733793 90.0055 0.13577 90.3739 0.391177L176.853 60.6179C176.908 60.6559 176.949 60.7105 176.971 60.7735C176.992 60.8365 176.993 60.9047 176.973 60.9683C176.953 61.0318 176.913 61.0873 176.86 61.1267C176.806 61.166 176.741 61.1873 176.675 61.1872Z" fill="#3F3D56"/>
<path d="M7.27466 63.3221L89.2054 2.60132L171.758 67.6426L93.4269 114.078L50.8999 104.385L7.27466 63.3221Z" fill="#E6E6E6"/>
<path d="M54.4896 142.76H14.0138C13.7653 142.76 13.5191 142.711 13.2894 142.616C13.0597 142.522 12.8509 142.382 12.6751 142.207C12.4992 142.031 12.3597 141.823 12.2645 141.593C12.1694 141.363 12.1204 141.117 12.1204 140.869C12.1204 140.62 12.1694 140.374 12.2645 140.145C12.3597 139.915 12.4992 139.706 12.6751 139.531C12.8509 139.355 13.0597 139.216 13.2894 139.121C13.5191 139.026 13.7653 138.977 14.0138 138.978H54.4896C54.7381 138.977 54.9843 139.026 55.214 139.121C55.4437 139.216 55.6525 139.355 55.8283 139.531C56.0042 139.706 56.1437 139.915 56.2389 140.145C56.334 140.374 56.383 140.62 56.383 140.869C56.383 141.117 56.334 141.363 56.2389 141.593C56.1437 141.823 56.0042 142.031 55.8283 142.207C55.6525 142.382 55.4437 142.522 55.214 142.616C54.9843 142.711 54.7381 142.76 54.4896 142.76Z" fill="#00A9FF"/>
<path d="M28.5356 134.63H14.0138C13.7653 134.63 13.5191 134.581 13.2894 134.486C13.0597 134.391 12.8509 134.252 12.6751 134.077C12.4992 133.901 12.3597 133.692 12.2645 133.463C12.1694 133.233 12.1204 132.987 12.1204 132.739C12.1204 132.49 12.1694 132.244 12.2645 132.014C12.3597 131.785 12.4992 131.576 12.6751 131.401C12.8509 131.225 13.0597 131.086 13.2894 130.991C13.5191 130.896 13.7653 130.847 14.0138 130.848H28.5356C28.7841 130.847 29.0303 130.896 29.26 130.991C29.4897 131.086 29.6985 131.225 29.8743 131.401C30.0502 131.576 30.1897 131.785 30.2849 132.014C30.3801 132.244 30.4291 132.49 30.4291 132.739C30.4291 132.987 30.3801 133.233 30.2849 133.463C30.1897 133.692 30.0502 133.901 29.8743 134.077C29.6985 134.252 29.4897 134.391 29.26 134.486C29.0303 134.581 28.7841 134.63 28.5356 134.63Z" fill="#00A9FF"/>
<path d="M90.3575 97.1428C90.0499 97.1431 89.7451 97.0834 89.4604 96.967L38.9312 76.001V10.3736C38.9318 9.79332 39.1627 9.23696 39.573 8.82661C39.9834 8.41626 40.5397 8.18543 41.12 8.18475H138.057C138.637 8.18543 139.193 8.41626 139.604 8.82661C140.014 9.23696 140.245 9.79332 140.245 10.3736V76.0468L140.151 76.0874L91.2819 96.9568C90.9892 97.0798 90.675 97.143 90.3575 97.1428Z" fill="white"/>
<path d="M90.3574 97.299C90.0294 97.2994 89.7044 97.2358 89.4007 97.1118L38.7747 76.1054V10.3737C38.7754 9.7519 39.0227 9.15579 39.4623 8.71613C39.902 8.27646 40.4981 8.02915 41.1199 8.02844H138.056C138.678 8.02915 139.274 8.27646 139.714 8.71613C140.154 9.15579 140.401 9.7519 140.402 10.3737V76.15L91.3431 97.1005C91.0311 97.2318 90.6959 97.2993 90.3574 97.299ZM39.4 75.6877L89.6392 96.5336C90.1078 96.7237 90.6325 96.7206 91.0988 96.5249L139.776 75.7372V10.3737C139.776 9.91772 139.594 9.48058 139.272 9.15817C138.95 8.83575 138.512 8.65438 138.056 8.65384H41.1199C40.6639 8.65438 40.2268 8.83575 39.9044 9.15817C39.582 9.48058 39.4006 9.91772 39.4001 10.3737L39.4 75.6877Z" fill="#3F3D56"/>
<path d="M176.049 60.5618H175.987L140.089 75.8903L90.9735 96.863C90.7815 96.9437 90.5756 96.9858 90.3674 96.9869C90.1592 96.988 89.9528 96.948 89.7601 96.8693L39.0873 75.8465L2.30768 60.5868L2.25149 60.5618H2.18889C1.60856 60.5625 1.05218 60.7933 0.64182 61.2036C0.231463 61.614 0.000643925 62.1704 0 62.7507V157.811C0.000644751 158.391 0.231464 158.948 0.64182 159.358C1.05218 159.769 1.60856 159.999 2.18889 160H176.049C176.63 159.999 177.186 159.769 177.596 159.358C178.007 158.948 178.238 158.391 178.238 157.811V62.7507C178.238 62.1704 178.007 61.614 177.596 61.2036C177.186 60.7933 176.63 60.5625 176.049 60.5618ZM177.613 157.811C177.613 158.226 177.448 158.623 177.155 158.916C176.862 159.21 176.464 159.374 176.049 159.375H2.18889C1.77428 159.374 1.37669 159.21 1.08352 158.916C0.790343 158.623 0.625563 158.226 0.625397 157.811V62.7507C0.625964 62.3464 0.782797 61.9579 1.06311 61.6666C1.34342 61.3752 1.7255 61.2034 2.1295 61.1872L39.0873 76.522L89.5194 97.4478C90.0654 97.6699 90.6771 97.6665 91.2205 97.4384L140.089 76.5689L176.112 61.1872C176.515 61.2046 176.896 61.3769 177.176 61.6681C177.455 61.9593 177.612 62.3471 177.613 62.7507V157.811Z" fill="#3F3D56"/>
<path d="M103.947 50.8834C102.979 50.8851 102.036 50.6044 101.261 50.0839L101.213 50.0516L91.0945 43.1119C90.6259 42.7902 90.2326 42.3891 89.9371 41.9313C89.6416 41.4735 89.4496 40.968 89.3721 40.4438C89.2947 39.9195 89.3332 39.3867 89.4856 38.8758C89.638 38.3649 89.9012 37.8859 90.2602 37.4661C90.6193 37.0464 91.0671 36.6941 91.5781 36.4293C92.0891 36.1646 92.6534 35.9926 93.2386 35.9232C93.8238 35.8538 94.4185 35.8884 94.9889 36.0249C95.5592 36.1614 96.0939 36.3972 96.5625 36.7188L103.116 41.2206L118.604 23.1268C118.963 22.7071 119.411 22.3549 119.922 22.0903C120.433 21.8257 120.997 21.6539 121.583 21.5847C122.168 21.5155 122.763 21.5503 123.333 21.687C123.903 21.8237 124.438 22.0597 124.906 22.3815L124.81 22.4986L124.909 22.3832C125.854 23.0338 126.472 23.9936 126.628 25.052C126.784 26.1105 126.465 27.1812 125.741 28.0291L107.524 49.3119C107.102 49.8023 106.561 50.1992 105.94 50.4717C105.32 50.7443 104.638 50.8851 103.947 50.8834Z" fill="#00A9FF"/>
</g>
<defs>
<clipPath id="clip0_19_78">
<rect width="178.238" height="160" fill="white"/>
</clipPath>
</defs>
</svg>
