<svg width="64" height="64" viewBox="0 0 64 64" fill="none" xmlns="http://www.w3.org/2000/svg">
<path d="M37.916 50.2137C37.916 50.7407 38.3435 51.1704 38.8699 51.1441C43.5839 50.9084 48.057 48.9318 51.4104 45.5784C54.9894 41.9994 57 37.1454 57 32.084C57 27.0226 54.9894 22.1685 51.4104 18.5896C48.057 15.2361 43.584 13.2596 38.8699 13.0238C38.3435 12.9975 37.916 13.4272 37.916 13.9542C37.916 14.4812 38.3437 14.9056 38.8698 14.9349C43.0774 15.1687 47.0655 16.9435 50.061 19.939C53.282 23.1601 55.0916 27.5287 55.0916 32.084C55.0916 36.6392 53.282 41.0079 50.061 44.2289C47.0655 47.2244 43.0774 48.9992 38.8698 49.2331C38.3437 49.2623 37.916 49.6867 37.916 50.2137Z" fill="#144B66"/>
<path d="M17 31.25C16.5858 31.25 16.25 31.5858 16.25 32C16.25 32.4142 16.5858 32.75 17 32.75L17 31.25ZM44.0303 32.5303C44.3232 32.2374 44.3232 31.7626 44.0303 31.4697L39.2574 26.6967C38.9645 26.4038 38.4896 26.4038 38.1967 26.6967C37.9038 26.9896 37.9038 27.4645 38.1967 27.7574L42.4393 32L38.1967 36.2426C37.9038 36.5355 37.9038 37.0104 38.1967 37.3033C38.4896 37.5962 38.9645 37.5962 39.2574 37.3033L44.0303 32.5303ZM17 32.75L43.5 32.75L43.5 31.25L17 31.25L17 32.75Z" fill="#144B66"/>
</svg>
