<svg width="1104" height="204" viewBox="0 0 1104 204" fill="none" xmlns="http://www.w3.org/2000/svg">
<rect x="0.5" y="0.5" width="1103" height="203" rx="9.5" fill="white" stroke="#D5D5D5"/>
<path d="M27.104 38L24.448 33.44H22.688V38H21.232V26.848H24.832C25.6747 26.848 26.384 26.992 26.96 27.28C27.5467 27.568 27.984 27.9573 28.272 28.448C28.56 28.9387 28.704 29.4987 28.704 30.128C28.704 30.896 28.48 31.5733 28.032 32.16C27.5947 32.7467 26.9333 33.136 26.048 33.328L28.848 38H27.104ZM22.688 32.272H24.832C25.6213 32.272 26.2133 32.08 26.608 31.696C27.0027 31.3013 27.2 30.7787 27.2 30.128C27.2 29.4667 27.0027 28.9547 26.608 28.592C26.224 28.2293 25.632 28.048 24.832 28.048H22.688V32.272ZM38.9664 33.28C38.9664 33.5573 38.9504 33.8507 38.9184 34.16H31.9104C31.9637 35.024 32.257 35.7013 32.7904 36.192C33.3344 36.672 33.9904 36.912 34.7584 36.912C35.3877 36.912 35.9104 36.768 36.3264 36.48C36.753 36.1813 37.0517 35.7867 37.2224 35.296H38.7904C38.5557 36.1387 38.0864 36.8267 37.3824 37.36C36.6784 37.8827 35.8037 38.144 34.7584 38.144C33.9264 38.144 33.1797 37.9573 32.5184 37.584C31.8677 37.2107 31.3557 36.6827 30.9824 36C30.609 35.3067 30.4224 34.5067 30.4224 33.6C30.4224 32.6933 30.6037 31.8987 30.9664 31.216C31.329 30.5333 31.8357 30.0107 32.4864 29.648C33.1477 29.2747 33.905 29.088 34.7584 29.088C35.5904 29.088 36.3264 29.2693 36.9664 29.632C37.6064 29.9947 38.097 30.496 38.4384 31.136C38.7904 31.7653 38.9664 32.48 38.9664 33.28ZM37.4624 32.976C37.4624 32.4213 37.3397 31.9467 37.0944 31.552C36.849 31.1467 36.513 30.8427 36.0864 30.64C35.6704 30.4267 35.2064 30.32 34.6944 30.32C33.9584 30.32 33.329 30.5547 32.8064 31.024C32.2944 31.4933 32.001 32.144 31.9264 32.976H37.4624ZM42.3443 30.848C42.6323 30.3467 43.0589 29.9307 43.6243 29.6C44.2003 29.2587 44.8669 29.088 45.6243 29.088C46.4029 29.088 47.1069 29.2747 47.7362 29.648C48.3762 30.0213 48.8776 30.5493 49.2403 31.232C49.6029 31.904 49.7843 32.688 49.7843 33.584C49.7843 34.4693 49.6029 35.2587 49.2403 35.952C48.8776 36.6453 48.3762 37.184 47.7362 37.568C47.1069 37.952 46.4029 38.144 45.6243 38.144C44.8776 38.144 44.2163 37.9787 43.6403 37.648C43.0749 37.3067 42.6429 36.8853 42.3443 36.384V42.16H40.8883V29.232H42.3443V30.848ZM48.2963 33.584C48.2963 32.9227 48.1629 32.3467 47.8963 31.856C47.6296 31.3653 47.2669 30.992 46.8083 30.736C46.3603 30.48 45.8643 30.352 45.3203 30.352C44.7869 30.352 44.2909 30.4853 43.8323 30.752C43.3843 31.008 43.0216 31.3867 42.7443 31.888C42.4776 32.3787 42.3443 32.9493 42.3443 33.6C42.3443 34.2613 42.4776 34.8427 42.7443 35.344C43.0216 35.8347 43.3843 36.2133 43.8323 36.48C44.2909 36.736 44.7869 36.864 45.3203 36.864C45.8643 36.864 46.3603 36.736 46.8083 36.48C47.2669 36.2133 47.6296 35.8347 47.8963 35.344C48.1629 34.8427 48.2963 34.256 48.2963 33.584ZM55.5248 38.144C54.7034 38.144 53.9568 37.9573 53.2848 37.584C52.6234 37.2107 52.1008 36.6827 51.7168 36C51.3434 35.3067 51.1568 34.5067 51.1568 33.6C51.1568 32.704 51.3488 31.9147 51.7328 31.232C52.1274 30.5387 52.6608 30.0107 53.3328 29.648C54.0048 29.2747 54.7568 29.088 55.5888 29.088C56.4208 29.088 57.1728 29.2747 57.8448 29.648C58.5168 30.0107 59.0448 30.5333 59.4288 31.216C59.8234 31.8987 60.0208 32.6933 60.0208 33.6C60.0208 34.5067 59.8181 35.3067 59.4128 36C59.0181 36.6827 58.4794 37.2107 57.7968 37.584C57.1141 37.9573 56.3568 38.144 55.5248 38.144ZM55.5248 36.864C56.0474 36.864 56.5381 36.7413 56.9968 36.496C57.4554 36.2507 57.8234 35.8827 58.1008 35.392C58.3888 34.9013 58.5328 34.304 58.5328 33.6C58.5328 32.896 58.3941 32.2987 58.1168 31.808C57.8394 31.3173 57.4768 30.9547 57.0288 30.72C56.5808 30.4747 56.0954 30.352 55.5728 30.352C55.0394 30.352 54.5488 30.4747 54.1008 30.72C53.6634 30.9547 53.3114 31.3173 53.0448 31.808C52.7781 32.2987 52.6448 32.896 52.6448 33.6C52.6448 34.3147 52.7728 34.9173 53.0288 35.408C53.2954 35.8987 53.6474 36.2667 54.0848 36.512C54.5221 36.7467 55.0021 36.864 55.5248 36.864ZM63.3911 30.656C63.6471 30.1547 64.0098 29.7653 64.4791 29.488C64.9591 29.2107 65.5405 29.072 66.2231 29.072V30.576H65.8391C64.2071 30.576 63.3911 31.4613 63.3911 33.232V38H61.9351V29.232H63.3911V30.656ZM69.6799 30.432V35.6C69.6799 36.0267 69.7705 36.3307 69.9519 36.512C70.1332 36.6827 70.4479 36.768 70.8959 36.768H71.9679V38H70.6559C69.8452 38 69.2372 37.8133 68.8319 37.44C68.4265 37.0667 68.2239 36.4533 68.2239 35.6V30.432H67.0879V29.232H68.2239V27.024H69.6799V29.232H71.9679V30.432H69.6799ZM77.4536 33.6C77.4536 32.6933 77.635 31.904 77.9976 31.232C78.3603 30.5493 78.8616 30.0213 79.5016 29.648C80.1523 29.2747 80.8936 29.088 81.7256 29.088C82.803 29.088 83.6883 29.3493 84.3816 29.872C85.0856 30.3947 85.5496 31.12 85.7736 32.048H84.2056C84.0563 31.5147 83.763 31.0933 83.3256 30.784C82.899 30.4747 82.3656 30.32 81.7256 30.32C80.8936 30.32 80.2216 30.608 79.7096 31.184C79.1976 31.7493 78.9416 32.5547 78.9416 33.6C78.9416 34.656 79.1976 35.472 79.7096 36.048C80.2216 36.624 80.8936 36.912 81.7256 36.912C82.3656 36.912 82.899 36.7627 83.3256 36.464C83.7523 36.1653 84.0456 35.7387 84.2056 35.184H85.7736C85.539 36.08 85.0696 36.8 84.3656 37.344C83.6616 37.8773 82.7816 38.144 81.7256 38.144C80.8936 38.144 80.1523 37.9573 79.5016 37.584C78.8616 37.2107 78.3603 36.6827 77.9976 36C77.635 35.3173 77.4536 34.5173 77.4536 33.6ZM91.5404 38.144C90.719 38.144 89.9724 37.9573 89.3004 37.584C88.639 37.2107 88.1164 36.6827 87.7324 36C87.359 35.3067 87.1724 34.5067 87.1724 33.6C87.1724 32.704 87.3644 31.9147 87.7484 31.232C88.143 30.5387 88.6764 30.0107 89.3484 29.648C90.0204 29.2747 90.7724 29.088 91.6044 29.088C92.4364 29.088 93.1884 29.2747 93.8604 29.648C94.5324 30.0107 95.0604 30.5333 95.4444 31.216C95.839 31.8987 96.0364 32.6933 96.0364 33.6C96.0364 34.5067 95.8337 35.3067 95.4284 36C95.0337 36.6827 94.495 37.2107 93.8124 37.584C93.1297 37.9573 92.3724 38.144 91.5404 38.144ZM91.5404 36.864C92.063 36.864 92.5537 36.7413 93.0124 36.496C93.471 36.2507 93.839 35.8827 94.1164 35.392C94.4044 34.9013 94.5484 34.304 94.5484 33.6C94.5484 32.896 94.4097 32.2987 94.1324 31.808C93.855 31.3173 93.4924 30.9547 93.0444 30.72C92.5964 30.4747 92.111 30.352 91.5884 30.352C91.055 30.352 90.5644 30.4747 90.1164 30.72C89.679 30.9547 89.327 31.3173 89.0604 31.808C88.7937 32.2987 88.6604 32.896 88.6604 33.6C88.6604 34.3147 88.7884 34.9173 89.0444 35.408C89.311 35.8987 89.663 36.2667 90.1004 36.512C90.5377 36.7467 91.0177 36.864 91.5404 36.864ZM108.495 29.072C109.177 29.072 109.785 29.216 110.319 29.504C110.852 29.7813 111.273 30.2027 111.583 30.768C111.892 31.3333 112.047 32.0213 112.047 32.832V38H110.607V33.04C110.607 32.1653 110.388 31.4987 109.951 31.04C109.524 30.5707 108.943 30.336 108.207 30.336C107.449 30.336 106.847 30.5813 106.399 31.072C105.951 31.552 105.727 32.2507 105.727 33.168V38H104.287V33.04C104.287 32.1653 104.068 31.4987 103.631 31.04C103.204 30.5707 102.623 30.336 101.887 30.336C101.129 30.336 100.527 30.5813 100.079 31.072C99.6308 31.552 99.4068 32.2507 99.4068 33.168V38H97.9508V29.232H99.4068V30.496C99.6948 30.0373 100.079 29.6853 100.559 29.44C101.049 29.1947 101.588 29.072 102.175 29.072C102.911 29.072 103.561 29.2373 104.127 29.568C104.692 29.8987 105.113 30.384 105.391 31.024C105.636 30.4053 106.041 29.9253 106.607 29.584C107.172 29.2427 107.801 29.072 108.495 29.072ZM115.891 30.848C116.179 30.3467 116.606 29.9307 117.171 29.6C117.747 29.2587 118.414 29.088 119.171 29.088C119.95 29.088 120.654 29.2747 121.283 29.648C121.923 30.0213 122.424 30.5493 122.787 31.232C123.15 31.904 123.331 32.688 123.331 33.584C123.331 34.4693 123.15 35.2587 122.787 35.952C122.424 36.6453 121.923 37.184 121.283 37.568C120.654 37.952 119.95 38.144 119.171 38.144C118.424 38.144 117.763 37.9787 117.187 37.648C116.622 37.3067 116.19 36.8853 115.891 36.384V42.16H114.435V29.232H115.891V30.848ZM121.843 33.584C121.843 32.9227 121.71 32.3467 121.443 31.856C121.176 31.3653 120.814 30.992 120.355 30.736C119.907 30.48 119.411 30.352 118.867 30.352C118.334 30.352 117.838 30.4853 117.379 30.752C116.931 31.008 116.568 31.3867 116.291 31.888C116.024 32.3787 115.891 32.9493 115.891 33.6C115.891 34.2613 116.024 34.8427 116.291 35.344C116.568 35.8347 116.931 36.2133 117.379 36.48C117.838 36.736 118.334 36.864 118.867 36.864C119.411 36.864 119.907 36.736 120.355 36.48C120.814 36.2133 121.176 35.8347 121.443 35.344C121.71 34.8427 121.843 34.256 121.843 33.584ZM126.704 26.16V38H125.248V26.16H126.704ZM137.185 33.28C137.185 33.5573 137.169 33.8507 137.137 34.16H130.129C130.182 35.024 130.476 35.7013 131.009 36.192C131.553 36.672 132.209 36.912 132.977 36.912C133.606 36.912 134.129 36.768 134.545 36.48C134.972 36.1813 135.27 35.7867 135.441 35.296H137.009C136.774 36.1387 136.305 36.8267 135.601 37.36C134.897 37.8827 134.022 38.144 132.977 38.144C132.145 38.144 131.398 37.9573 130.737 37.584C130.086 37.2107 129.574 36.6827 129.201 36C128.828 35.3067 128.641 34.5067 128.641 33.6C128.641 32.6933 128.822 31.8987 129.185 31.216C129.548 30.5333 130.054 30.0107 130.705 29.648C131.366 29.2747 132.124 29.088 132.977 29.088C133.809 29.088 134.545 29.2693 135.185 29.632C135.825 29.9947 136.316 30.496 136.657 31.136C137.009 31.7653 137.185 32.48 137.185 33.28ZM135.681 32.976C135.681 32.4213 135.558 31.9467 135.313 31.552C135.068 31.1467 134.732 30.8427 134.305 30.64C133.889 30.4267 133.425 30.32 132.913 30.32C132.177 30.32 131.548 30.5547 131.025 31.024C130.513 31.4933 130.22 32.144 130.145 32.976H135.681ZM140.883 30.432V35.6C140.883 36.0267 140.974 36.3307 141.155 36.512C141.336 36.6827 141.651 36.768 142.099 36.768H143.171V38H141.859C141.048 38 140.44 37.8133 140.035 37.44C139.63 37.0667 139.427 36.4533 139.427 35.6V30.432H138.291V29.232H139.427V27.024H140.883V29.232H143.171V30.432H140.883ZM152.935 33.28C152.935 33.5573 152.919 33.8507 152.887 34.16H145.879C145.932 35.024 146.226 35.7013 146.759 36.192C147.303 36.672 147.959 36.912 148.727 36.912C149.356 36.912 149.879 36.768 150.295 36.48C150.722 36.1813 151.02 35.7867 151.191 35.296H152.759C152.524 36.1387 152.055 36.8267 151.351 37.36C150.647 37.8827 149.772 38.144 148.727 38.144C147.895 38.144 147.148 37.9573 146.487 37.584C145.836 37.2107 145.324 36.6827 144.951 36C144.578 35.3067 144.391 34.5067 144.391 33.6C144.391 32.6933 144.572 31.8987 144.935 31.216C145.298 30.5333 145.804 30.0107 146.455 29.648C147.116 29.2747 147.874 29.088 148.727 29.088C149.559 29.088 150.295 29.2693 150.935 29.632C151.575 29.9947 152.066 30.496 152.407 31.136C152.759 31.7653 152.935 32.48 152.935 33.28ZM151.431 32.976C151.431 32.4213 151.308 31.9467 151.063 31.552C150.818 31.1467 150.482 30.8427 150.055 30.64C149.639 30.4267 149.175 30.32 148.663 30.32C147.927 30.32 147.298 30.5547 146.775 31.024C146.263 31.4933 145.97 32.144 145.895 32.976H151.431ZM154.313 33.584C154.313 32.688 154.494 31.904 154.857 31.232C155.22 30.5493 155.716 30.0213 156.345 29.648C156.985 29.2747 157.7 29.088 158.489 29.088C159.172 29.088 159.806 29.248 160.393 29.568C160.98 29.8773 161.428 30.288 161.737 30.8V26.16H163.209V38H161.737V36.352C161.449 36.8747 161.022 37.3067 160.457 37.648C159.892 37.9787 159.23 38.144 158.473 38.144C157.694 38.144 156.985 37.952 156.345 37.568C155.716 37.184 155.22 36.6453 154.857 35.952C154.494 35.2587 154.313 34.4693 154.313 33.584ZM161.737 33.6C161.737 32.9387 161.604 32.3627 161.337 31.872C161.07 31.3813 160.708 31.008 160.249 30.752C159.801 30.4853 159.305 30.352 158.761 30.352C158.217 30.352 157.721 30.48 157.273 30.736C156.825 30.992 156.468 31.3653 156.201 31.856C155.934 32.3467 155.801 32.9227 155.801 33.584C155.801 34.256 155.934 34.8427 156.201 35.344C156.468 35.8347 156.825 36.2133 157.273 36.48C157.721 36.736 158.217 36.864 158.761 36.864C159.305 36.864 159.801 36.736 160.249 36.48C160.708 36.2133 161.07 35.8347 161.337 35.344C161.604 34.8427 161.737 34.2613 161.737 33.6Z" fill="black"/>
<line x1="21" y1="64" x2="21" y2="150" stroke="black" stroke-width="2"/>
<path d="M22 64H1078C1081.31 64 1084 66.6863 1084 70V78C1084 81.3137 1081.31 84 1078 84H22V64Z" fill="#00A9FF"/>
<path d="M22 98H765.772C769.086 98 771.772 100.686 771.772 104V112C771.772 115.314 769.086 118 765.772 118H22V98Z" fill="#4CAF50"/>
<path d="M22 130H329.29C332.604 130 335.29 132.686 335.29 136V144C335.29 147.314 332.604 150 329.29 150H22V130Z" fill="#FFC107"/>
<circle cx="25" cy="175" r="5" fill="#00A9FF"/>
<path d="M34.516 175.688C34.516 175.016 34.652 174.428 34.924 173.924C35.196 173.412 35.568 173.016 36.04 172.736C36.52 172.456 37.052 172.316 37.636 172.316C38.212 172.316 38.712 172.44 39.136 172.688C39.56 172.936 39.876 173.248 40.084 173.624V172.424H41.188V179H40.084V177.776C39.868 178.16 39.544 178.48 39.112 178.736C38.688 178.984 38.192 179.108 37.624 179.108C37.04 179.108 36.512 178.964 36.04 178.676C35.568 178.388 35.196 177.984 34.924 177.464C34.652 176.944 34.516 176.352 34.516 175.688ZM40.084 175.7C40.084 175.204 39.984 174.772 39.784 174.404C39.584 174.036 39.312 173.756 38.968 173.564C38.632 173.364 38.26 173.264 37.852 173.264C37.444 173.264 37.072 173.36 36.736 173.552C36.4 173.744 36.132 174.024 35.932 174.392C35.732 174.76 35.632 175.192 35.632 175.688C35.632 176.192 35.732 176.632 35.932 177.008C36.132 177.376 36.4 177.66 36.736 177.86C37.072 178.052 37.444 178.148 37.852 178.148C38.26 178.148 38.632 178.052 38.968 177.86C39.312 177.66 39.584 177.376 39.784 177.008C39.984 176.632 40.084 176.196 40.084 175.7ZM44.1254 170.12V179H43.0334V170.12H44.1254ZM47.0785 170.12V179H45.9865V170.12H47.0785ZM53.2308 173.492C53.4228 173.116 53.6948 172.824 54.0468 172.616C54.4068 172.408 54.8428 172.304 55.3548 172.304V173.432H55.0668C53.8428 173.432 53.2308 174.096 53.2308 175.424V179H52.1388V172.424H53.2308V173.492ZM62.6154 175.46C62.6154 175.668 62.6034 175.888 62.5794 176.12H57.3234C57.3634 176.768 57.5834 177.276 57.9834 177.644C58.3914 178.004 58.8834 178.184 59.4594 178.184C59.9314 178.184 60.3234 178.076 60.6354 177.86C60.9554 177.636 61.1794 177.34 61.3074 176.972H62.4834C62.3074 177.604 61.9554 178.12 61.4274 178.52C60.8994 178.912 60.2434 179.108 59.4594 179.108C58.8354 179.108 58.2754 178.968 57.7794 178.688C57.2914 178.408 56.9074 178.012 56.6274 177.5C56.3474 176.98 56.2074 176.38 56.2074 175.7C56.2074 175.02 56.3434 174.424 56.6154 173.912C56.8874 173.4 57.2674 173.008 57.7554 172.736C58.2514 172.456 58.8194 172.316 59.4594 172.316C60.0834 172.316 60.6354 172.452 61.1154 172.724C61.5954 172.996 61.9634 173.372 62.2194 173.852C62.4834 174.324 62.6154 174.86 62.6154 175.46ZM61.4874 175.232C61.4874 174.816 61.3954 174.46 61.2114 174.164C61.0274 173.86 60.7754 173.632 60.4554 173.48C60.1434 173.32 59.7954 173.24 59.4114 173.24C58.8594 173.24 58.3874 173.416 57.9954 173.768C57.6114 174.12 57.3914 174.608 57.3354 175.232H61.4874ZM65.1488 173.636C65.3648 173.26 65.6848 172.948 66.1088 172.7C66.5408 172.444 67.0408 172.316 67.6088 172.316C68.1928 172.316 68.7208 172.456 69.1928 172.736C69.6728 173.016 70.0488 173.412 70.3208 173.924C70.5928 174.428 70.7288 175.016 70.7288 175.688C70.7288 176.352 70.5928 176.944 70.3208 177.464C70.0488 177.984 69.6728 178.388 69.1928 178.676C68.7208 178.964 68.1928 179.108 67.6088 179.108C67.0488 179.108 66.5528 178.984 66.1208 178.736C65.6968 178.48 65.3728 178.164 65.1488 177.788V182.12H64.0568V172.424H65.1488V173.636ZM69.6128 175.688C69.6128 175.192 69.5128 174.76 69.3128 174.392C69.1128 174.024 68.8408 173.744 68.4968 173.552C68.1608 173.36 67.7888 173.264 67.3808 173.264C66.9808 173.264 66.6088 173.364 66.2648 173.564C65.9288 173.756 65.6568 174.04 65.4488 174.416C65.2488 174.784 65.1488 175.212 65.1488 175.7C65.1488 176.196 65.2488 176.632 65.4488 177.008C65.6568 177.376 65.9288 177.66 66.2648 177.86C66.6088 178.052 66.9808 178.148 67.3808 178.148C67.7888 178.148 68.1608 178.052 68.4968 177.86C68.8408 177.66 69.1128 177.376 69.3128 177.008C69.5128 176.632 69.6128 176.192 69.6128 175.688ZM75.0342 179.108C74.4182 179.108 73.8582 178.968 73.3542 178.688C72.8582 178.408 72.4662 178.012 72.1782 177.5C71.8982 176.98 71.7582 176.38 71.7582 175.7C71.7582 175.028 71.9022 174.436 72.1902 173.924C72.4862 173.404 72.8862 173.008 73.3902 172.736C73.8942 172.456 74.4582 172.316 75.0822 172.316C75.7062 172.316 76.2702 172.456 76.7742 172.736C77.2782 173.008 77.6742 173.4 77.9622 173.912C78.2582 174.424 78.4062 175.02 78.4062 175.7C78.4062 176.38 78.2542 176.98 77.9502 177.5C77.6542 178.012 77.2502 178.408 76.7382 178.688C76.2262 178.968 75.6582 179.108 75.0342 179.108ZM75.0342 178.148C75.4262 178.148 75.7942 178.056 76.1382 177.872C76.4822 177.688 76.7582 177.412 76.9662 177.044C77.1822 176.676 77.2902 176.228 77.2902 175.7C77.2902 175.172 77.1862 174.724 76.9782 174.356C76.7702 173.988 76.4982 173.716 76.1622 173.54C75.8262 173.356 75.4622 173.264 75.0702 173.264C74.6702 173.264 74.3022 173.356 73.9662 173.54C73.6382 173.716 73.3742 173.988 73.1742 174.356C72.9742 174.724 72.8742 175.172 72.8742 175.7C72.8742 176.236 72.9702 176.688 73.1622 177.056C73.3622 177.424 73.6262 177.7 73.9542 177.884C74.2822 178.06 74.6422 178.148 75.0342 178.148ZM80.934 173.492C81.126 173.116 81.398 172.824 81.75 172.616C82.11 172.408 82.546 172.304 83.058 172.304V173.432H82.77C81.546 173.432 80.934 174.096 80.934 175.424V179H79.842V172.424H80.934V173.492ZM85.6505 173.324V177.2C85.6505 177.52 85.7185 177.748 85.8545 177.884C85.9905 178.012 86.2265 178.076 86.5625 178.076H87.3665V179H86.3825C85.7745 179 85.3185 178.86 85.0145 178.58C84.7105 178.3 84.5585 177.84 84.5585 177.2V173.324H83.7065V172.424H84.5585V170.768H85.6505V172.424H87.3665V173.324H85.6505ZM91.0176 179.108C90.5136 179.108 90.0616 179.024 89.6616 178.856C89.2616 178.68 88.9456 178.44 88.7136 178.136C88.4816 177.824 88.3536 177.468 88.3296 177.068H89.4576C89.4896 177.396 89.6416 177.664 89.9136 177.872C90.1936 178.08 90.5576 178.184 91.0056 178.184C91.4216 178.184 91.7496 178.092 91.9896 177.908C92.2296 177.724 92.3496 177.492 92.3496 177.212C92.3496 176.924 92.2216 176.712 91.9656 176.576C91.7096 176.432 91.3136 176.292 90.7776 176.156C90.2896 176.028 89.8896 175.9 89.5776 175.772C89.2736 175.636 89.0096 175.44 88.7856 175.184C88.5696 174.92 88.4616 174.576 88.4616 174.152C88.4616 173.816 88.5616 173.508 88.7616 173.228C88.9616 172.948 89.2456 172.728 89.6136 172.568C89.9816 172.4 90.4016 172.316 90.8736 172.316C91.6016 172.316 92.1896 172.5 92.6376 172.868C93.0856 173.236 93.3256 173.74 93.3576 174.38H92.2656C92.2416 174.036 92.1016 173.76 91.8456 173.552C91.5976 173.344 91.2616 173.24 90.8376 173.24C90.4456 173.24 90.1336 173.324 89.9016 173.492C89.6696 173.66 89.5536 173.88 89.5536 174.152C89.5536 174.368 89.6216 174.548 89.7576 174.692C89.9016 174.828 90.0776 174.94 90.2856 175.028C90.5016 175.108 90.7976 175.2 91.1736 175.304C91.6456 175.432 92.0296 175.56 92.3256 175.688C92.6216 175.808 92.8736 175.992 93.0816 176.24C93.2976 176.488 93.4096 176.812 93.4176 177.212C93.4176 177.572 93.3176 177.896 93.1176 178.184C92.9176 178.472 92.6336 178.7 92.2656 178.868C91.9056 179.028 91.4896 179.108 91.0176 179.108Z" fill="black"/>
<circle cx="116" cy="175" r="5" fill="#4CAF50"/>
<path d="M128.252 179.108C127.748 179.108 127.296 179.024 126.896 178.856C126.496 178.68 126.18 178.44 125.948 178.136C125.716 177.824 125.588 177.468 125.564 177.068H126.692C126.724 177.396 126.876 177.664 127.148 177.872C127.428 178.08 127.792 178.184 128.24 178.184C128.656 178.184 128.984 178.092 129.224 177.908C129.464 177.724 129.584 177.492 129.584 177.212C129.584 176.924 129.456 176.712 129.2 176.576C128.944 176.432 128.548 176.292 128.012 176.156C127.524 176.028 127.124 175.9 126.812 175.772C126.508 175.636 126.244 175.44 126.02 175.184C125.804 174.92 125.696 174.576 125.696 174.152C125.696 173.816 125.796 173.508 125.996 173.228C126.196 172.948 126.48 172.728 126.848 172.568C127.216 172.4 127.636 172.316 128.108 172.316C128.836 172.316 129.424 172.5 129.872 172.868C130.32 173.236 130.56 173.74 130.592 174.38H129.5C129.476 174.036 129.336 173.76 129.08 173.552C128.832 173.344 128.496 173.24 128.072 173.24C127.68 173.24 127.368 173.324 127.136 173.492C126.904 173.66 126.788 173.88 126.788 174.152C126.788 174.368 126.856 174.548 126.992 174.692C127.136 174.828 127.312 174.94 127.52 175.028C127.736 175.108 128.032 175.2 128.408 175.304C128.88 175.432 129.264 175.56 129.56 175.688C129.856 175.808 130.108 175.992 130.316 176.24C130.532 176.488 130.644 176.812 130.652 177.212C130.652 177.572 130.552 177.896 130.352 178.184C130.152 178.472 129.868 178.7 129.5 178.868C129.14 179.028 128.724 179.108 128.252 179.108ZM135.062 179.108C134.446 179.108 133.886 178.968 133.382 178.688C132.886 178.408 132.494 178.012 132.206 177.5C131.926 176.98 131.786 176.38 131.786 175.7C131.786 175.028 131.93 174.436 132.218 173.924C132.514 173.404 132.914 173.008 133.418 172.736C133.922 172.456 134.486 172.316 135.11 172.316C135.734 172.316 136.298 172.456 136.802 172.736C137.306 173.008 137.702 173.4 137.99 173.912C138.286 174.424 138.434 175.02 138.434 175.7C138.434 176.38 138.282 176.98 137.978 177.5C137.682 178.012 137.278 178.408 136.766 178.688C136.254 178.968 135.686 179.108 135.062 179.108ZM135.062 178.148C135.454 178.148 135.822 178.056 136.166 177.872C136.51 177.688 136.786 177.412 136.994 177.044C137.21 176.676 137.318 176.228 137.318 175.7C137.318 175.172 137.214 174.724 137.006 174.356C136.798 173.988 136.526 173.716 136.19 173.54C135.854 173.356 135.49 173.264 135.098 173.264C134.698 173.264 134.33 173.356 133.994 173.54C133.666 173.716 133.402 173.988 133.202 174.356C133.002 174.724 132.902 175.172 132.902 175.7C132.902 176.236 132.998 176.688 133.19 177.056C133.39 177.424 133.654 177.7 133.982 177.884C134.31 178.06 134.67 178.148 135.062 178.148ZM140.961 170.12V179H139.869V170.12H140.961ZM145.27 177.992L147.31 172.424H148.474L145.894 179H144.622L142.042 172.424H143.218L145.27 177.992ZM155.549 175.46C155.549 175.668 155.537 175.888 155.513 176.12H150.257C150.297 176.768 150.517 177.276 150.917 177.644C151.325 178.004 151.817 178.184 152.393 178.184C152.865 178.184 153.257 178.076 153.569 177.86C153.889 177.636 154.113 177.34 154.241 176.972H155.417C155.241 177.604 154.889 178.12 154.361 178.52C153.833 178.912 153.177 179.108 152.393 179.108C151.769 179.108 151.209 178.968 150.713 178.688C150.225 178.408 149.841 178.012 149.561 177.5C149.281 176.98 149.141 176.38 149.141 175.7C149.141 175.02 149.277 174.424 149.549 173.912C149.821 173.4 150.201 173.008 150.689 172.736C151.185 172.456 151.753 172.316 152.393 172.316C153.017 172.316 153.569 172.452 154.049 172.724C154.529 172.996 154.897 173.372 155.153 173.852C155.417 174.324 155.549 174.86 155.549 175.46ZM154.421 175.232C154.421 174.816 154.329 174.46 154.145 174.164C153.961 173.86 153.709 173.632 153.389 173.48C153.077 173.32 152.729 173.24 152.345 173.24C151.793 173.24 151.321 173.416 150.929 173.768C150.545 174.12 150.325 174.608 150.269 175.232H154.421ZM156.582 175.688C156.582 175.016 156.718 174.428 156.99 173.924C157.262 173.412 157.634 173.016 158.106 172.736C158.586 172.456 159.122 172.316 159.714 172.316C160.226 172.316 160.702 172.436 161.142 172.676C161.582 172.908 161.918 173.216 162.15 173.6V170.12H163.254V179H162.15V177.764C161.934 178.156 161.614 178.48 161.19 178.736C160.766 178.984 160.27 179.108 159.702 179.108C159.118 179.108 158.586 178.964 158.106 178.676C157.634 178.388 157.262 177.984 156.99 177.464C156.718 176.944 156.582 176.352 156.582 175.688ZM162.15 175.7C162.15 175.204 162.05 174.772 161.85 174.404C161.65 174.036 161.378 173.756 161.034 173.564C160.698 173.364 160.326 173.264 159.918 173.264C159.51 173.264 159.138 173.36 158.802 173.552C158.466 173.744 158.198 174.024 157.998 174.392C157.798 174.76 157.698 175.192 157.698 175.688C157.698 176.192 157.798 176.632 157.998 177.008C158.198 177.376 158.466 177.66 158.802 177.86C159.138 178.052 159.51 178.148 159.918 178.148C160.326 178.148 160.698 178.052 161.034 177.86C161.378 177.66 161.65 177.376 161.85 177.008C162.05 176.632 162.15 176.196 162.15 175.7Z" fill="black"/>
<circle cx="186" cy="175" r="5" fill="#FFC107"/>
<path d="M199.128 172.304C199.928 172.304 200.576 172.548 201.072 173.036C201.568 173.516 201.816 174.212 201.816 175.124V179H200.736V175.28C200.736 174.624 200.572 174.124 200.244 173.78C199.916 173.428 199.468 173.252 198.9 173.252C198.324 173.252 197.864 173.432 197.52 173.792C197.184 174.152 197.016 174.676 197.016 175.364V179H195.924V172.424H197.016V173.36C197.232 173.024 197.524 172.764 197.892 172.58C198.268 172.396 198.68 172.304 199.128 172.304ZM206.468 179.108C205.852 179.108 205.292 178.968 204.788 178.688C204.292 178.408 203.9 178.012 203.612 177.5C203.332 176.98 203.192 176.38 203.192 175.7C203.192 175.028 203.336 174.436 203.624 173.924C203.92 173.404 204.32 173.008 204.824 172.736C205.328 172.456 205.892 172.316 206.516 172.316C207.14 172.316 207.704 172.456 208.208 172.736C208.712 173.008 209.108 173.4 209.396 173.912C209.692 174.424 209.84 175.02 209.84 175.7C209.84 176.38 209.688 176.98 209.384 177.5C209.088 178.012 208.684 178.408 208.172 178.688C207.66 178.968 207.092 179.108 206.468 179.108ZM206.468 178.148C206.86 178.148 207.228 178.056 207.572 177.872C207.916 177.688 208.192 177.412 208.4 177.044C208.616 176.676 208.724 176.228 208.724 175.7C208.724 175.172 208.62 174.724 208.412 174.356C208.204 173.988 207.932 173.716 207.596 173.54C207.26 173.356 206.896 173.264 206.504 173.264C206.104 173.264 205.736 173.356 205.4 173.54C205.072 173.716 204.808 173.988 204.608 174.356C204.408 174.724 204.308 175.172 204.308 175.7C204.308 176.236 204.404 176.688 204.596 177.056C204.796 177.424 205.06 177.7 205.388 177.884C205.716 178.06 206.076 178.148 206.468 178.148ZM212.608 173.324V177.2C212.608 177.52 212.676 177.748 212.812 177.884C212.948 178.012 213.184 178.076 213.52 178.076H214.324V179H213.34C212.732 179 212.276 178.86 211.972 178.58C211.668 178.3 211.516 177.84 211.516 177.2V173.324H210.664V172.424H211.516V170.768H212.608V172.424H214.324V173.324H212.608ZM221.174 179.108C220.67 179.108 220.218 179.024 219.818 178.856C219.418 178.68 219.102 178.44 218.87 178.136C218.638 177.824 218.51 177.468 218.486 177.068H219.614C219.646 177.396 219.798 177.664 220.07 177.872C220.35 178.08 220.714 178.184 221.162 178.184C221.578 178.184 221.906 178.092 222.146 177.908C222.386 177.724 222.506 177.492 222.506 177.212C222.506 176.924 222.378 176.712 222.122 176.576C221.866 176.432 221.47 176.292 220.934 176.156C220.446 176.028 220.046 175.9 219.734 175.772C219.43 175.636 219.166 175.44 218.942 175.184C218.726 174.92 218.618 174.576 218.618 174.152C218.618 173.816 218.718 173.508 218.918 173.228C219.118 172.948 219.402 172.728 219.77 172.568C220.138 172.4 220.558 172.316 221.03 172.316C221.758 172.316 222.346 172.5 222.794 172.868C223.242 173.236 223.482 173.74 223.514 174.38H222.422C222.398 174.036 222.258 173.76 222.002 173.552C221.754 173.344 221.418 173.24 220.994 173.24C220.602 173.24 220.29 173.324 220.058 173.492C219.826 173.66 219.71 173.88 219.71 174.152C219.71 174.368 219.778 174.548 219.914 174.692C220.058 174.828 220.234 174.94 220.442 175.028C220.658 175.108 220.954 175.2 221.33 175.304C221.802 175.432 222.186 175.56 222.482 175.688C222.778 175.808 223.03 175.992 223.238 176.24C223.454 176.488 223.566 176.812 223.574 177.212C223.574 177.572 223.474 177.896 223.274 178.184C223.074 178.472 222.79 178.7 222.422 178.868C222.062 179.028 221.646 179.108 221.174 179.108ZM227.983 179.108C227.367 179.108 226.807 178.968 226.303 178.688C225.807 178.408 225.415 178.012 225.127 177.5C224.847 176.98 224.707 176.38 224.707 175.7C224.707 175.028 224.851 174.436 225.139 173.924C225.435 173.404 225.835 173.008 226.339 172.736C226.843 172.456 227.407 172.316 228.031 172.316C228.655 172.316 229.219 172.456 229.723 172.736C230.227 173.008 230.623 173.4 230.911 173.912C231.207 174.424 231.355 175.02 231.355 175.7C231.355 176.38 231.203 176.98 230.899 177.5C230.603 178.012 230.199 178.408 229.687 178.688C229.175 178.968 228.607 179.108 227.983 179.108ZM227.983 178.148C228.375 178.148 228.743 178.056 229.087 177.872C229.431 177.688 229.707 177.412 229.915 177.044C230.131 176.676 230.239 176.228 230.239 175.7C230.239 175.172 230.135 174.724 229.927 174.356C229.719 173.988 229.447 173.716 229.111 173.54C228.775 173.356 228.411 173.264 228.019 173.264C227.619 173.264 227.251 173.356 226.915 173.54C226.587 173.716 226.323 173.988 226.123 174.356C225.923 174.724 225.823 175.172 225.823 175.7C225.823 176.236 225.919 176.688 226.111 177.056C226.311 177.424 226.575 177.7 226.903 177.884C227.231 178.06 227.591 178.148 227.983 178.148ZM233.883 170.12V179H232.791V170.12H233.883ZM238.192 177.992L240.232 172.424H241.396L238.816 179H237.544L234.964 172.424H236.14L238.192 177.992ZM248.471 175.46C248.471 175.668 248.459 175.888 248.435 176.12H243.179C243.219 176.768 243.439 177.276 243.839 177.644C244.247 178.004 244.739 178.184 245.315 178.184C245.787 178.184 246.179 178.076 246.491 177.86C246.811 177.636 247.035 177.34 247.163 176.972H248.339C248.163 177.604 247.811 178.12 247.283 178.52C246.755 178.912 246.099 179.108 245.315 179.108C244.691 179.108 244.131 178.968 243.635 178.688C243.147 178.408 242.763 178.012 242.483 177.5C242.203 176.98 242.063 176.38 242.063 175.7C242.063 175.02 242.199 174.424 242.471 173.912C242.743 173.4 243.123 173.008 243.611 172.736C244.107 172.456 244.675 172.316 245.315 172.316C245.939 172.316 246.491 172.452 246.971 172.724C247.451 172.996 247.819 173.372 248.075 173.852C248.339 174.324 248.471 174.86 248.471 175.46ZM247.343 175.232C247.343 174.816 247.251 174.46 247.067 174.164C246.883 173.86 246.631 173.632 246.311 173.48C245.999 173.32 245.651 173.24 245.267 173.24C244.715 173.24 244.243 173.416 243.851 173.768C243.467 174.12 243.247 174.608 243.191 175.232H247.343ZM249.504 175.688C249.504 175.016 249.64 174.428 249.912 173.924C250.184 173.412 250.556 173.016 251.028 172.736C251.508 172.456 252.044 172.316 252.636 172.316C253.148 172.316 253.624 172.436 254.064 172.676C254.504 172.908 254.84 173.216 255.072 173.6V170.12H256.176V179H255.072V177.764C254.856 178.156 254.536 178.48 254.112 178.736C253.688 178.984 253.192 179.108 252.624 179.108C252.04 179.108 251.508 178.964 251.028 178.676C250.556 178.388 250.184 177.984 249.912 177.464C249.64 176.944 249.504 176.352 249.504 175.688ZM255.072 175.7C255.072 175.204 254.972 174.772 254.772 174.404C254.572 174.036 254.3 173.756 253.956 173.564C253.62 173.364 253.248 173.264 252.84 173.264C252.432 173.264 252.06 173.36 251.724 173.552C251.388 173.744 251.12 174.024 250.92 174.392C250.72 174.76 250.62 175.192 250.62 175.688C250.62 176.192 250.72 176.632 250.92 177.008C251.12 177.376 251.388 177.66 251.724 177.86C252.06 178.052 252.432 178.148 252.84 178.148C253.248 178.148 253.62 178.052 253.956 177.86C254.3 177.66 254.572 177.376 254.772 177.008C254.972 176.632 255.072 176.196 255.072 175.7ZM266.885 172.424L262.925 182.096H261.797L263.093 178.928L260.441 172.424H261.653L263.717 177.752L265.757 172.424H266.885ZM273.983 175.46C273.983 175.668 273.971 175.888 273.947 176.12H268.691C268.731 176.768 268.951 177.276 269.351 177.644C269.759 178.004 270.251 178.184 270.827 178.184C271.299 178.184 271.691 178.076 272.003 177.86C272.323 177.636 272.547 177.34 272.675 176.972H273.851C273.675 177.604 273.323 178.12 272.795 178.52C272.267 178.912 271.611 179.108 270.827 179.108C270.203 179.108 269.643 178.968 269.147 178.688C268.659 178.408 268.275 178.012 267.995 177.5C267.715 176.98 267.575 176.38 267.575 175.7C267.575 175.02 267.711 174.424 267.983 173.912C268.255 173.4 268.635 173.008 269.123 172.736C269.619 172.456 270.187 172.316 270.827 172.316C271.451 172.316 272.003 172.452 272.483 172.724C272.963 172.996 273.331 173.372 273.587 173.852C273.851 174.324 273.983 174.86 273.983 175.46ZM272.855 175.232C272.855 174.816 272.763 174.46 272.579 174.164C272.395 173.86 272.143 173.632 271.823 173.48C271.511 173.32 271.163 173.24 270.779 173.24C270.227 173.24 269.755 173.416 269.363 173.768C268.979 174.12 268.759 174.608 268.703 175.232H272.855ZM276.756 173.324V177.2C276.756 177.52 276.824 177.748 276.96 177.884C277.096 178.012 277.332 178.076 277.668 178.076H278.472V179H277.488C276.88 179 276.424 178.86 276.12 178.58C275.816 178.3 275.664 177.84 275.664 177.2V173.324H274.812V172.424H275.664V170.768H276.756V172.424H278.472V173.324H276.756Z" fill="black"/>
</svg>
