<svg width="17" height="15" viewBox="0 0 17 15" fill="none" xmlns="http://www.w3.org/2000/svg">
<path d="M0.297656 7.52C0.297656 5.21333 0.684323 3.41333 1.45766 2.12C2.24432 0.813332 3.59099 0.159999 5.49766 0.159999C7.40432 0.159999 8.74432 0.813332 9.51766 2.12C10.3043 3.41333 10.6977 5.21333 10.6977 7.52C10.6977 9.85333 10.3043 11.68 9.51766 13C8.74432 14.3067 7.40432 14.96 5.49766 14.96C3.59099 14.96 2.24432 14.3067 1.45766 13C0.684323 11.68 0.297656 9.85333 0.297656 7.52ZM8.45766 7.52C8.45766 6.44 8.38432 5.52667 8.23766 4.78C8.10432 4.03333 7.82432 3.42667 7.39766 2.96C6.97099 2.48 6.33766 2.24 5.49766 2.24C4.65766 2.24 4.02432 2.48 3.59766 2.96C3.17099 3.42667 2.88432 4.03333 2.73766 4.78C2.60432 5.52667 2.53766 6.44 2.53766 7.52C2.53766 8.64 2.60432 9.58 2.73766 10.34C2.87099 11.1 3.15099 11.7133 3.57766 12.18C4.01766 12.6467 4.65766 12.88 5.49766 12.88C6.33766 12.88 6.97099 12.6467 7.39766 12.18C7.83766 11.7133 8.12432 11.1 8.25766 10.34C8.39099 9.58 8.45766 8.64 8.45766 7.52ZM12.8102 2.5V0.419999H16.9702V15H14.6702V2.5H12.8102Z" fill="black"/>
</svg>
