<svg width="522" height="964" viewBox="0 0 522 964" fill="none" xmlns="http://www.w3.org/2000/svg">
<path d="M379.5 227C379.5 231.418 383.082 235 387.5 235C391.918 235 395.5 231.418 395.5 227C395.5 222.582 391.918 219 387.5 219C383.082 219 379.5 222.582 379.5 227ZM237 94.5L237.813 95.7604L237 94.5ZM36 8C36 12.4183 39.5817 16 44 16C48.4183 16 52 12.4183 52 8C52 3.58172 48.4183 0 44 0C39.5817 0 36 3.58172 36 8ZM45.1228 13.9588C45.4773 14.7075 46.3717 15.0271 47.1204 14.6726C47.8691 14.3181 48.1887 13.4238 47.8342 12.675L45.1228 13.9588ZM52.8439 22.9262C52.4706 22.1866 51.5685 21.8897 50.8289 22.263C50.0894 22.6362 49.7924 23.5383 50.1657 24.2779L52.8439 22.9262ZM55.4968 34.4852C55.8909 35.2138 56.8011 35.4851 57.5298 35.0909C58.2584 34.6968 58.5297 33.7866 58.1356 33.058L55.4968 34.4852ZM63.7673 43.0874C63.3498 42.3719 62.4313 42.1303 61.7158 42.5478C61.0002 42.9653 60.7586 43.8838 61.1761 44.5993L63.7673 43.0874ZM67.1899 54.4917C67.6335 55.1913 68.5603 55.3989 69.2599 54.9553C69.9595 54.5117 70.1671 53.5849 69.7235 52.8852L67.1899 54.4917ZM76.0494 62.4197C75.5765 61.7395 74.6418 61.5715 73.9616 62.0444C73.2814 62.5173 73.1133 63.4521 73.5862 64.1322L76.0494 62.4197ZM80.417 73.4711C80.9228 74.1272 81.8647 74.249 82.5208 73.7432C83.1769 73.2374 83.2987 72.2955 82.7929 71.6394L80.417 73.4711ZM90.0022 80.4681C89.4595 79.8422 88.5121 79.7747 87.8862 80.3174C87.2603 80.8602 87.1929 81.8075 87.7356 82.4334L90.0022 80.4681ZM95.5936 90.9148C96.1775 91.5025 97.1272 91.5057 97.715 90.9219C98.3027 90.3381 98.3059 89.3883 97.722 88.8006L95.5936 90.9148ZM106.077 96.5769C105.448 96.0382 104.501 96.1116 103.962 96.7409C103.423 97.3702 103.497 98.3171 104.126 98.8559L106.077 96.5769ZM113.321 106.016C113.999 106.493 114.934 106.329 115.411 105.652C115.887 104.974 115.724 104.038 115.046 103.562L113.321 106.016ZM124.627 109.549C123.9 109.151 122.989 109.417 122.59 110.143C122.192 110.87 122.458 111.781 123.184 112.18L124.627 109.549ZM133.778 117.155C134.549 117.458 135.42 117.078 135.723 116.307C136.025 115.536 135.646 114.665 134.875 114.363L133.778 117.155ZM145.637 117.753C144.832 117.56 144.022 118.057 143.83 118.863C143.637 119.669 144.134 120.478 144.94 120.671L145.637 117.753ZM156.487 122.564C157.312 122.638 158.042 122.03 158.117 121.205C158.191 120.38 157.583 119.651 156.758 119.576L156.487 122.564ZM168.037 119.797C167.21 119.838 166.572 120.542 166.613 121.369C166.654 122.197 167.359 122.834 168.186 122.793L168.037 119.797ZM179.797 121.455C180.613 121.309 181.155 120.53 181.009 119.714C180.863 118.899 180.084 118.356 179.268 118.502L179.797 121.455ZM190.294 115.873C189.5 116.109 189.046 116.943 189.282 117.738C189.517 118.532 190.351 118.985 191.146 118.75L190.294 115.873ZM202.138 114.917C202.907 114.609 203.281 113.736 202.974 112.967C202.666 112.198 201.793 111.824 201.024 112.131L202.138 114.917ZM211.43 107.494C210.686 107.858 210.378 108.757 210.742 109.501C211.107 110.245 212.005 110.553 212.749 110.188L211.43 107.494ZM223 104.773C223.721 104.365 223.976 103.45 223.569 102.729C223.161 102.008 222.246 101.753 221.525 102.161L223 104.773ZM231.353 96.3078C230.65 96.746 230.435 97.6712 230.873 98.3742C231.312 99.0773 232.237 99.2919 232.94 98.8536L231.353 96.3078ZM242.674 92.8871C243.404 92.4942 243.677 91.5844 243.284 90.8551C242.891 90.1258 241.981 89.853 241.252 90.2459L242.674 92.8871ZM251.936 85.5644C251.153 85.8335 250.736 86.6868 251.005 87.4703C251.274 88.2538 252.127 88.6708 252.91 88.4018L251.936 85.5644ZM263.773 85.6502C264.59 85.5132 265.141 84.7399 265.004 83.9228C264.867 83.1058 264.094 82.5545 263.277 82.6915L263.773 85.6502ZM274.91 81.6745C274.082 81.6831 273.417 82.3616 273.426 83.1899C273.434 84.0183 274.113 84.6829 274.941 84.6743L274.91 81.6745ZM286.151 85.3639C286.972 85.4717 287.725 84.8932 287.833 84.0718C287.941 83.2504 287.362 82.4972 286.541 82.3894L286.151 85.3639ZM297.964 84.6328C297.162 84.4241 296.343 84.9048 296.134 85.7065C295.926 86.5082 296.406 87.3273 297.208 87.536L297.964 84.6328ZM307.961 90.9834C308.735 91.2779 309.601 90.8889 309.896 90.1146C310.19 89.3403 309.801 88.4738 309.027 88.1794L307.961 90.9834ZM319.65 92.8245C318.907 92.4573 318.008 92.7617 317.641 93.5044C317.273 94.247 317.578 95.1466 318.321 95.5138L319.65 92.8245ZM328.254 100.976C328.962 101.405 329.885 101.179 330.314 100.47C330.743 99.7617 330.517 98.8392 329.809 98.4099L328.254 100.976ZM339.462 104.796C338.789 104.312 337.852 104.466 337.368 105.139C336.885 105.811 337.038 106.749 337.711 107.232L339.462 104.796ZM346.676 114.19C347.312 114.721 348.258 114.637 348.789 114.001C349.32 113.366 349.236 112.42 348.6 111.888L346.676 114.19ZM357.205 119.615C356.609 119.04 355.659 119.058 355.084 119.654C354.51 120.251 354.527 121.2 355.124 121.775L357.205 119.615ZM363.022 129.933C363.578 130.548 364.526 130.596 365.141 130.041C365.756 129.486 365.804 128.538 365.249 127.923L363.022 129.933ZM372.695 136.783C372.185 136.13 371.242 136.014 370.589 136.524C369.936 137.033 369.82 137.976 370.33 138.629L372.695 136.783ZM376.97 147.82C377.429 148.509 378.361 148.696 379.05 148.237C379.74 147.778 379.927 146.847 379.467 146.157L376.97 147.82ZM385.491 156.055C385.091 155.33 384.178 155.067 383.453 155.467C382.728 155.868 382.465 156.78 382.865 157.505L385.491 156.055ZM387.872 167.658C388.202 168.418 389.085 168.767 389.845 168.437C390.605 168.107 390.954 167.224 390.624 166.464L387.872 167.658ZM394.658 177.358C394.416 176.565 393.578 176.119 392.785 176.361C391.993 176.603 391.547 177.441 391.789 178.233L394.658 177.358ZM394.336 189.183C394.464 190.002 395.231 190.561 396.05 190.433C396.868 190.305 397.428 189.538 397.3 188.719L394.336 189.183ZM398.104 200.413C398.125 199.585 397.471 198.897 396.643 198.875C395.815 198.854 395.126 199.509 395.105 200.337L398.104 200.413ZM393.603 211.312C393.394 212.113 393.874 212.933 394.675 213.142C395.477 213.351 396.296 212.871 396.506 212.07L393.603 211.312ZM392.021 223.011C392.438 222.295 392.195 221.376 391.479 220.96C390.763 220.543 389.845 220.786 389.428 221.502L392.021 223.011ZM42.6368 8.62575C43.4646 10.4294 44.2933 12.2069 45.1228 13.9588L47.8342 12.675C47.0099 10.9341 46.1863 9.16724 45.3632 7.37425L42.6368 8.62575ZM50.1657 24.2779C51.9399 27.7933 53.7171 31.1947 55.4968 34.4852L58.1356 33.058C56.3698 29.7933 54.6058 26.4171 52.8439 22.9262L50.1657 24.2779ZM61.1761 44.5993C63.1784 48.0309 65.1832 51.3269 67.1899 54.4917L69.7235 52.8852C67.7373 49.7528 65.7517 46.4883 63.7673 43.0874L61.1761 44.5993ZM73.5862 64.1322C75.8619 67.4055 78.1392 70.5164 80.417 73.4711L82.7929 71.6394C80.5464 68.7254 78.2982 65.6543 76.0494 62.4197L73.5862 64.1322ZM87.7356 82.4334C90.3559 85.4553 92.9757 88.2794 95.5936 90.9148L97.722 88.8006C95.154 86.2153 92.5801 83.4411 90.0022 80.4681L87.7356 82.4334ZM104.126 98.8559C107.197 101.485 110.263 103.866 113.321 106.016L115.046 103.562C112.069 101.469 109.078 99.1463 106.077 96.5769L104.126 98.8559ZM123.184 112.18C126.732 114.125 130.265 115.776 133.778 117.155L134.875 114.363C131.483 113.031 128.065 111.435 124.627 109.549L123.184 112.18ZM144.94 120.671C148.825 121.599 152.677 122.218 156.487 122.564L156.758 119.576C153.088 119.243 149.38 118.647 145.637 117.753L144.94 120.671ZM168.186 122.793C172.115 122.598 175.988 122.138 179.797 121.455L179.268 118.502C175.576 119.164 171.83 119.608 168.037 119.797L168.186 122.793ZM191.146 118.75C194.885 117.643 198.552 116.35 202.138 114.917L201.024 112.131C197.515 113.534 193.936 114.795 190.294 115.873L191.146 118.75ZM212.749 110.188C216.26 108.469 219.68 106.648 223 104.773L221.525 102.161C218.248 104.011 214.881 105.804 211.43 107.494L212.749 110.188ZM232.94 98.8536C234.595 97.8218 236.22 96.7883 237.813 95.7604L236.187 93.2396C234.605 94.2604 232.993 95.2854 231.353 96.3078L232.94 98.8536ZM237.813 95.7604C239.418 94.7249 241.039 93.7679 242.674 92.8871L241.252 90.2459C239.547 91.1644 237.858 92.1616 236.187 93.2396L237.813 95.7604ZM252.91 88.4018C256.486 87.1737 260.113 86.2639 263.773 85.6502L263.277 82.6915C259.458 83.3318 255.671 84.2817 251.936 85.5644L252.91 88.4018ZM274.941 84.6743C278.664 84.6358 282.406 84.8727 286.151 85.3639L286.541 82.3894C282.664 81.8809 278.781 81.6344 274.91 81.6745L274.941 84.6743ZM297.208 87.536C300.812 88.4743 304.402 89.63 307.961 90.9834L309.027 88.1794C305.372 86.7894 301.679 85.6 297.964 84.6328L297.208 87.536ZM318.321 95.5138C321.68 97.1748 324.996 99.0014 328.254 100.976L329.809 98.4099C326.481 96.3933 323.09 94.5251 319.65 92.8245L318.321 95.5138ZM337.711 107.232C340.774 109.433 343.767 111.758 346.676 114.19L348.6 111.888C345.637 109.411 342.586 107.041 339.462 104.796L337.711 107.232ZM355.124 121.775C357.86 124.411 360.497 127.136 363.022 129.933L365.249 127.923C362.678 125.074 359.992 122.299 357.205 119.615L355.124 121.775ZM370.33 138.629C372.683 141.642 374.901 144.712 376.97 147.82L379.467 146.157C377.355 142.985 375.093 139.854 372.695 136.783L370.33 138.629ZM382.865 157.505C384.727 160.879 386.402 164.271 387.872 167.658L390.624 166.464C389.114 162.985 387.397 159.507 385.491 156.055L382.865 157.505ZM391.789 178.233C392.918 181.933 393.774 185.593 394.336 189.183L397.3 188.719C396.714 184.978 395.824 181.18 394.658 177.358L391.789 178.233ZM395.105 200.337C395.008 204.14 394.517 207.811 393.603 211.312L396.506 212.07C397.483 208.327 398.002 204.425 398.104 200.413L395.105 200.337ZM389.428 221.502C388.511 223.079 387.477 224.604 386.321 226.072L388.679 227.928C389.921 226.349 391.034 224.708 392.021 223.011L389.428 221.502Z" fill="#144B66"/>
<path d="M315 301C315 305.418 318.582 309 323 309C327.418 309 331 305.418 331 301C331 296.582 327.418 293 323 293C318.582 293 315 296.582 315 301ZM89 330.5L90.4888 330.683L89 330.5ZM59.4999 492.497C59.4999 496.915 63.0816 500.497 67.4999 500.497C71.9182 500.497 75.4999 496.915 75.4999 492.497C75.4999 488.079 71.9182 484.497 67.4999 484.497C63.0816 484.497 59.4999 488.079 59.4999 492.497ZM63.8799 487.493C63.2486 486.956 62.3019 487.033 61.7656 487.664C61.2292 488.296 61.3062 489.242 61.9375 489.779L63.8799 487.493ZM53.3127 482.296C53.9325 482.846 54.8805 482.789 55.4303 482.169C55.98 481.55 55.9233 480.601 55.3035 480.052L53.3127 482.296ZM46.655 472.178C46.0502 471.612 45.1009 471.644 44.5348 472.248C43.9687 472.853 44.0001 473.802 44.6049 474.368L46.655 472.178ZM36.2392 466.287C36.8251 466.872 37.7749 466.872 38.3605 466.286C38.9462 465.7 38.946 464.751 38.3601 464.165L36.2392 466.287ZM30.4196 455.903C29.8588 455.294 28.9099 455.254 28.3002 455.815C27.6905 456.376 27.6509 457.325 28.2117 457.934L30.4196 455.903ZM20.5745 449.176C21.1004 449.817 22.0456 449.909 22.6857 449.383C23.3258 448.857 23.4184 447.912 22.8925 447.272L20.5745 449.176ZM15.9498 438.154C15.476 437.474 14.541 437.307 13.8615 437.781C13.1819 438.255 13.0151 439.19 13.4889 439.87L15.9498 438.154ZM7.31514 429.889C7.70536 430.62 8.61411 430.896 9.34487 430.505C10.0756 430.115 10.3517 429.206 9.96146 428.476L7.31514 429.889ZM5.56928 418.194C5.32406 417.403 4.4838 416.96 3.6925 417.206C2.90119 417.451 2.4585 418.291 2.70371 419.082L5.56928 418.194ZM0.864016 407.26C0.851348 408.088 1.51257 408.77 2.3409 408.783C3.16923 408.795 3.851 408.134 3.86367 407.306L0.864016 407.26ZM6.27114 396.711C6.62073 395.96 6.29527 395.068 5.54421 394.718C4.79316 394.369 3.90092 394.694 3.55133 395.445L6.27114 396.711ZM10.5016 385.657C9.92208 386.249 9.93212 387.199 10.5241 387.778C11.116 388.358 12.0657 388.348 12.6453 387.756L10.5016 385.657ZM21.3472 380.611C22.0312 380.144 22.2068 379.21 21.7394 378.526C21.272 377.842 20.3386 377.667 19.6546 378.134L21.3472 380.611ZM29.7027 372.085C28.974 372.479 28.7027 373.39 29.0967 374.118C29.4907 374.847 30.4008 375.118 31.1296 374.724L29.7027 372.085ZM41.4024 369.534C42.1492 369.176 42.464 368.28 42.1054 367.533C41.7469 366.786 40.8508 366.471 40.104 366.83L41.4024 369.534ZM50.5866 361.884C49.8372 362.237 49.5161 363.131 49.8693 363.881C50.2225 364.63 51.1163 364.951 51.8656 364.598L50.5866 361.884ZM62.3089 359.506C63.0458 359.127 63.3364 358.223 62.9579 357.486C62.5795 356.749 61.6753 356.459 60.9383 356.837L62.3089 359.506ZM70.8875 351.217C70.1885 351.661 69.9824 352.588 70.4271 353.287C70.8718 353.986 71.7989 354.192 72.4979 353.748L70.8875 351.217ZM81.9132 346.513C82.5087 345.937 82.5247 344.987 81.9488 344.392C81.3729 343.796 80.4233 343.78 79.8278 344.356L81.9132 346.513ZM86.1384 335.506C85.8207 336.271 86.1834 337.149 86.9486 337.466C87.7137 337.784 88.5914 337.421 88.9091 336.656L86.1384 335.506ZM91.348 324.368C91.4709 323.549 90.9063 322.785 90.0871 322.663C89.2678 322.54 88.5041 323.104 88.3812 323.923L91.348 324.368ZM90.6006 311.771C90.4222 312.58 90.9334 313.38 91.7424 313.559C92.5514 313.737 93.3519 313.226 93.5303 312.417L90.6006 311.771ZM96.7199 300.742C96.9851 299.957 96.5638 299.105 95.779 298.84C94.9941 298.575 94.1429 298.996 93.8778 299.781L96.7199 300.742ZM98.8562 288.406C98.4448 289.125 98.6943 290.042 99.4133 290.453C100.132 290.865 101.049 290.615 101.46 289.896L98.8562 288.406ZM108.892 280.925C109.546 280.417 109.664 279.474 109.156 278.82C108.647 278.167 107.705 278.049 107.051 278.557L108.892 280.925ZM119.028 273.761C118.204 273.847 117.607 274.585 117.693 275.409C117.78 276.233 118.518 276.831 119.342 276.744L119.028 273.761ZM130.968 277.898C131.769 278.108 132.589 277.629 132.8 276.828C133.01 276.026 132.531 275.206 131.729 274.996L130.968 277.898ZM143.449 279.283C142.694 278.942 141.806 279.278 141.465 280.033C141.124 280.788 141.459 281.676 142.214 282.017L143.449 279.283ZM153.094 287.534C153.819 287.935 154.732 287.672 155.132 286.946C155.533 286.221 155.269 285.309 154.544 284.908L153.094 287.534ZM165.206 291.089C164.495 290.663 163.574 290.893 163.147 291.603C162.721 292.313 162.951 293.234 163.661 293.661L165.206 291.089ZM174.162 300.069C174.868 300.503 175.792 300.282 176.226 299.577C176.659 298.871 176.439 297.947 175.733 297.513L174.162 300.069ZM186.214 303.913C185.504 303.486 184.583 303.714 184.155 304.424C183.727 305.133 183.956 306.055 184.665 306.483L186.214 303.913ZM195.293 312.725C196.013 313.135 196.928 312.883 197.338 312.163C197.748 311.443 197.496 310.527 196.776 310.117L195.293 312.725ZM207.523 315.959C206.786 315.579 205.882 315.869 205.502 316.605C205.123 317.342 205.412 318.246 206.149 318.626L207.523 315.959ZM217.306 323.983C218.064 324.318 218.949 323.975 219.284 323.218C219.619 322.46 219.277 321.574 218.519 321.239L217.306 323.983ZM229.823 325.729C229.041 325.456 228.185 325.868 227.912 326.651C227.639 327.433 228.052 328.288 228.834 328.561L229.823 325.729ZM240.779 332.067C241.586 332.257 242.393 331.757 242.582 330.95C242.772 330.144 242.271 329.336 241.465 329.147L240.779 332.067ZM253.373 331.148C252.548 331.068 251.814 331.67 251.734 332.495C251.653 333.319 252.256 334.053 253.08 334.134L253.373 331.148ZM265.588 334.383C266.415 334.332 267.044 333.62 266.993 332.793C266.942 331.967 266.23 331.338 265.403 331.389L265.588 334.383ZM277.259 329.616C276.453 329.81 275.958 330.62 276.152 331.426C276.346 332.231 277.157 332.726 277.962 332.532L277.259 329.616ZM289.804 328.547C290.564 328.216 290.911 327.332 290.58 326.573C290.249 325.813 289.366 325.466 288.606 325.797L289.804 328.547ZM299.196 320.127C298.498 320.573 298.294 321.501 298.74 322.199C299.186 322.897 300.113 323.101 300.811 322.655L299.196 320.127ZM310.823 315.247C311.456 314.712 311.536 313.766 311.001 313.133C310.466 312.5 309.52 312.42 308.887 312.955L310.823 315.247ZM317.668 304.647C317.097 305.247 317.12 306.197 317.72 306.768C318.32 307.339 319.27 307.316 319.841 306.716L317.668 304.647ZM68.4598 491.344C66.9003 490.046 65.3738 488.762 63.8799 487.493L61.9375 489.779C63.4391 491.055 64.9731 492.345 66.54 493.65L68.4598 491.344ZM55.3035 480.052C52.2662 477.357 49.3852 474.734 46.655 472.178L44.6049 474.368C47.3559 476.943 50.2567 479.585 53.3127 482.296L55.3035 480.052ZM38.3601 464.165C35.5144 461.32 32.8707 458.568 30.4196 455.903L28.2117 457.934C30.6934 460.632 33.3663 463.415 36.2392 466.287L38.3601 464.165ZM22.8925 447.272C20.2824 444.095 17.975 441.058 15.9498 438.154L13.4889 439.87C15.5641 442.846 17.92 445.945 20.5745 449.176L22.8925 447.272ZM9.96146 428.476C8.00131 424.805 6.55827 421.386 5.56928 418.194L2.70371 419.082C3.75718 422.482 5.27949 426.077 7.31514 429.889L9.96146 428.476ZM3.86367 407.306C3.92308 403.421 4.7788 399.917 6.27114 396.711L3.55133 395.445C1.88443 399.027 0.930012 402.945 0.864016 407.26L3.86367 407.306ZM12.6453 387.756C15.1414 385.206 18.0812 382.843 21.3472 380.611L19.6546 378.134C16.2717 380.446 13.1692 382.932 10.5016 385.657L12.6453 387.756ZM31.1296 374.724C34.438 372.936 37.8913 371.22 41.4024 369.534L40.104 366.83C36.5716 368.526 33.0706 370.265 29.7027 372.085L31.1296 374.724ZM51.8656 364.598C55.417 362.924 58.9337 361.239 62.3089 359.506L60.9383 356.837C57.6099 358.547 54.1304 360.214 50.5866 361.884L51.8656 364.598ZM72.4979 353.748C76.0131 351.511 79.213 349.124 81.9132 346.513L79.8278 344.356C77.3156 346.786 74.2909 349.051 70.8875 351.217L72.4979 353.748ZM88.9091 336.656C89.6922 334.77 90.2305 332.782 90.4888 330.683L87.5112 330.317C87.2871 332.138 86.8206 333.863 86.1384 335.506L88.9091 336.656ZM90.4888 330.683C90.7572 328.501 91.0438 326.397 91.348 324.368L88.3812 323.923C88.0728 325.979 87.7827 328.11 87.5112 330.317L90.4888 330.683ZM93.5303 312.417C94.4882 308.073 95.5537 304.193 96.7199 300.742L93.8778 299.781C92.6713 303.352 91.578 307.338 90.6006 311.771L93.5303 312.417ZM101.46 289.896C103.728 285.932 106.219 283.004 108.892 280.925L107.051 278.557C104.009 280.923 101.277 284.175 98.8562 288.406L101.46 289.896ZM119.342 276.744C122.904 276.37 126.78 276.799 130.968 277.898L131.729 274.996C127.299 273.834 123.048 273.338 119.028 273.761L119.342 276.744ZM142.214 282.017C145.708 283.595 149.337 285.46 153.094 287.534L154.544 284.908C150.741 282.808 147.037 280.904 143.449 279.283L142.214 282.017ZM163.661 293.661C167.084 295.718 170.585 297.87 174.162 300.069L175.733 297.513C172.159 295.316 168.645 293.155 165.206 291.089L163.661 293.661ZM184.665 306.483C188.152 308.584 191.697 310.68 195.293 312.725L196.776 310.117C193.209 308.088 189.687 306.006 186.214 303.913L184.665 306.483ZM206.149 318.626C209.824 320.519 213.546 322.32 217.306 323.983L218.519 321.239C214.822 319.604 211.154 317.83 207.523 315.959L206.149 318.626ZM228.834 328.561C232.781 329.94 236.766 331.125 240.779 332.067L241.465 329.147C237.566 328.231 233.683 327.077 229.823 325.729L228.834 328.561ZM253.08 334.134C257.229 334.54 261.401 334.641 265.588 334.383L265.403 331.389C261.387 331.636 257.375 331.54 253.373 331.148L253.08 334.134ZM277.962 332.532C281.912 331.579 285.862 330.265 289.804 328.547L288.606 325.797C284.824 327.445 281.039 328.704 277.259 329.616L277.962 332.532ZM300.811 322.655C304.163 320.515 307.501 318.053 310.823 315.247L308.887 312.955C305.662 315.68 302.43 318.062 299.196 320.127L300.811 322.655ZM319.841 306.716C321.276 305.208 322.707 303.631 324.134 301.981L321.866 300.018C320.469 301.633 319.069 303.175 317.668 304.647L319.841 306.716Z" fill="#144B66"/>
<path d="M417.218 798C417.218 802.419 420.8 806 425.218 806C429.636 806 433.218 802.419 433.218 798C433.218 793.582 429.636 790 425.218 790C420.8 790 417.218 793.582 417.218 798ZM281 843L280.067 844.175L281 843ZM228 964L236.705 949.026L219.385 948.974L228 964ZM229.518 958.152C229.523 957.324 228.855 956.648 228.027 956.643C227.198 956.638 226.523 957.305 226.518 958.134L229.518 958.152ZM226.666 946.46C226.65 947.288 227.308 947.973 228.136 947.989C228.964 948.005 229.649 947.347 229.665 946.519L226.666 946.46ZM229.984 934.854C230.013 934.026 229.366 933.331 228.538 933.302C227.71 933.272 227.015 933.92 226.986 934.747L229.984 934.854ZM227.506 923.088C227.461 923.915 228.095 924.622 228.922 924.667C229.749 924.711 230.456 924.077 230.501 923.25L227.506 923.088ZM231.261 911.609C231.325 910.783 230.707 910.062 229.881 909.998C229.055 909.934 228.334 910.552 228.27 911.378L231.261 911.609ZM229.33 899.721C229.243 900.545 229.84 901.283 230.664 901.371C231.488 901.458 232.226 900.861 232.313 900.037L229.33 899.721ZM233.735 888.532C233.852 887.712 233.282 886.952 232.462 886.835C231.642 886.718 230.882 887.287 230.765 888.108L233.735 888.532ZM232.703 876.517C232.545 877.33 233.076 878.117 233.889 878.275C234.702 878.433 235.489 877.902 235.647 877.089L232.703 876.517ZM238.236 865.817C238.453 865.017 237.98 864.194 237.181 863.977C236.381 863.76 235.557 864.233 235.341 865.032L238.236 865.817ZM239.053 853.764C238.744 854.532 239.116 855.406 239.885 855.715C240.653 856.024 241.527 855.652 241.836 854.883L239.053 853.764ZM247.062 844.854C247.534 844.173 247.365 843.238 246.684 842.766C246.003 842.294 245.069 842.463 244.596 843.144L247.062 844.854ZM253.607 834.811C252.867 835.184 252.571 836.086 252.944 836.826C253.318 837.565 254.22 837.862 254.959 837.488L253.607 834.811ZM265.308 836.333C266.117 836.507 266.915 835.992 267.089 835.182C267.263 834.372 266.748 833.574 265.938 833.4L265.308 836.333ZM277.043 838.302C276.347 837.854 275.419 838.055 274.97 838.751C274.521 839.448 274.722 840.376 275.419 840.824L277.043 838.302ZM284.787 848.023C285.423 848.554 286.369 848.469 286.9 847.833C287.431 847.198 287.346 846.252 286.71 845.72L284.787 848.023ZM296.008 853.779C295.389 853.228 294.441 853.283 293.89 853.901C293.339 854.52 293.394 855.468 294.013 856.019L296.008 853.779ZM303.144 864.186C303.764 864.735 304.712 864.678 305.261 864.057C305.81 863.437 305.753 862.489 305.133 861.94L303.144 864.186ZM314.418 869.789C313.767 869.277 312.823 869.389 312.311 870.04C311.799 870.691 311.912 871.634 312.563 872.147L314.418 869.789ZM322.867 879.164C323.591 879.566 324.504 879.305 324.907 878.581C325.309 877.857 325.048 876.943 324.323 876.541L322.867 879.164ZM335.27 880.639C334.454 880.493 333.675 881.036 333.529 881.852C333.383 882.667 333.926 883.446 334.741 883.592L335.27 880.639ZM347.5 883.127C348.304 882.927 348.794 882.114 348.595 881.31C348.395 880.506 347.582 880.015 346.778 880.215L347.5 883.127ZM357.57 875.617C356.857 876.039 356.621 876.959 357.043 877.672C357.465 878.385 358.385 878.621 359.098 878.199L357.57 875.617ZM369.226 870.915C369.861 870.382 369.945 869.436 369.412 868.801C368.88 868.166 367.934 868.083 367.299 868.615L369.226 870.915ZM376.135 860.393C375.554 860.984 375.562 861.934 376.153 862.515C376.743 863.096 377.693 863.088 378.274 862.497L376.135 860.393ZM386.682 853.365C387.225 852.739 387.158 851.792 386.533 851.249C385.907 850.705 384.96 850.772 384.417 851.398L386.682 853.365ZM392.14 842.09C391.624 842.738 391.731 843.682 392.379 844.198C393.027 844.714 393.97 844.607 394.487 843.959L392.14 842.09ZM401.978 834.231C402.474 833.567 402.337 832.627 401.674 832.132C401.01 831.636 400.07 831.772 399.574 832.436L401.978 834.231ZM406.758 822.562C406.279 823.237 406.437 824.174 407.113 824.654C407.788 825.133 408.724 824.975 409.204 824.299L406.758 822.562ZM416.211 814.23C416.678 813.546 416.502 812.612 415.817 812.145C415.133 811.678 414.2 811.854 413.733 812.538L416.211 814.23ZM420.538 802.4C420.081 803.092 420.271 804.022 420.962 804.479C421.654 804.936 422.584 804.745 423.041 804.054L420.538 802.4ZM229.665 946.519C229.743 942.554 229.849 938.663 229.984 934.854L226.986 934.747C226.85 938.574 226.744 942.48 226.666 946.46L229.665 946.519ZM230.501 923.25C230.717 919.264 230.97 915.381 231.261 911.609L228.27 911.378C227.977 915.175 227.723 919.08 227.506 923.088L230.501 923.25ZM232.313 900.037C232.736 896.048 233.208 892.21 233.735 888.532L230.765 888.108C230.233 891.825 229.756 895.699 229.33 899.721L232.313 900.037ZM235.647 877.089C236.429 873.071 237.29 869.308 238.236 865.817L235.341 865.032C234.373 868.603 233.495 872.438 232.703 876.517L235.647 877.089ZM241.836 854.883C243.42 850.946 245.161 847.594 247.062 844.854L244.596 843.144C242.538 846.113 240.697 849.676 239.053 853.764L241.836 854.883ZM254.959 837.488C258.019 835.943 261.436 835.502 265.308 836.333L265.938 833.4C261.449 832.436 257.326 832.932 253.607 834.811L254.959 837.488ZM275.419 840.824C276.918 841.79 278.467 842.905 280.067 844.175L281.932 841.825C280.264 840.501 278.635 839.327 277.043 838.302L275.419 840.824ZM280.067 844.175C281.677 845.453 283.249 846.738 284.787 848.023L286.71 845.72C285.156 844.422 283.564 843.121 281.932 841.825L280.067 844.175ZM294.013 856.019C297.157 858.819 300.216 861.593 303.144 864.186L305.133 861.94C302.193 859.336 299.196 856.618 296.008 853.779L294.013 856.019ZM312.563 872.147C316.01 874.859 319.42 877.25 322.867 879.164L324.323 876.541C321.062 874.731 317.79 872.442 314.418 869.789L312.563 872.147ZM334.741 883.592C338.827 884.324 343.047 884.231 347.5 883.127L346.778 880.215C342.735 881.217 338.941 881.296 335.27 880.639L334.741 883.592ZM359.098 878.199C362.33 876.287 365.695 873.874 369.226 870.915L367.299 868.615C363.87 871.489 360.638 873.802 357.57 875.617L359.098 878.199ZM378.274 862.497C380.973 859.754 383.771 856.716 386.682 853.365L384.417 851.398C381.542 854.708 378.785 857.7 376.135 860.393L378.274 862.497ZM394.487 843.959C396.907 840.92 399.403 837.68 401.978 834.231L399.574 832.436C397.016 835.863 394.54 839.077 392.14 842.09L394.487 843.959ZM409.204 824.299C411.479 821.096 413.814 817.741 416.211 814.23L413.733 812.538C411.346 816.036 409.022 819.375 406.758 822.562L409.204 824.299ZM423.041 804.054C424.172 802.342 425.317 800.597 426.475 798.819L423.961 797.182C422.806 798.955 421.665 800.694 420.538 802.4L423.041 804.054Z" fill="#144B66"/>
<path d="M486.5 716.5C486.5 720.918 490.082 724.5 494.5 724.5C498.918 724.5 502.5 720.918 502.5 716.5C502.5 712.081 498.918 708.5 494.5 708.5C490.082 708.5 486.5 712.081 486.5 716.5ZM373 519L373.377 520.451L373 519ZM144.5 552C144.5 556.418 148.082 560 152.5 560C156.918 560 160.5 556.418 160.5 552C160.5 547.582 156.918 544 152.5 544C148.082 544 144.5 547.582 144.5 552ZM156.763 556.538C157.466 556.976 158.391 556.763 158.83 556.06C159.269 555.357 159.055 554.432 158.352 553.993L156.763 556.538ZM168.52 559.895C167.79 559.503 166.881 559.778 166.489 560.509C166.098 561.239 166.373 562.148 167.103 562.539L168.52 559.895ZM177.854 567.784C178.613 568.117 179.498 567.772 179.831 567.014C180.164 566.255 179.819 565.37 179.061 565.037L177.854 567.784ZM190.047 569.292C189.262 569.029 188.412 569.453 188.149 570.239C187.886 571.024 188.31 571.874 189.095 572.137L190.047 569.292ZM200.65 575.365C201.458 575.546 202.26 575.037 202.441 574.229C202.622 573.42 202.113 572.618 201.305 572.438L200.65 575.365ZM212.874 574.354C212.051 574.265 211.311 574.861 211.223 575.685C211.135 576.509 211.731 577.248 212.554 577.337L212.874 574.354ZM224.577 577.918C225.405 577.91 226.07 577.231 226.061 576.403C226.053 575.575 225.374 574.91 224.546 574.918L224.577 577.918ZM236.223 574.122C235.401 574.225 234.818 574.975 234.921 575.797C235.024 576.619 235.774 577.202 236.596 577.099L236.223 574.122ZM248.44 574.972C249.247 574.784 249.749 573.978 249.561 573.171C249.373 572.364 248.567 571.862 247.76 572.05L248.44 574.972ZM259.067 568.872C258.28 569.13 257.851 569.977 258.109 570.764C258.367 571.551 259.214 571.98 260.001 571.722L259.067 568.872ZM271.249 567.575C272.016 567.262 272.385 566.387 272.072 565.62C271.76 564.853 270.885 564.484 270.117 564.797L271.249 567.575ZM280.923 560.045C280.173 560.397 279.85 561.29 280.202 562.04C280.554 562.79 281.447 563.113 282.197 562.761L280.923 560.045ZM292.904 557.491C293.641 557.114 293.933 556.21 293.555 555.472C293.178 554.735 292.274 554.443 291.536 554.821L292.904 557.491ZM302.035 549.306C301.304 549.697 301.029 550.606 301.42 551.336C301.811 552.066 302.72 552.341 303.451 551.95L302.035 549.306ZM313.917 546.309C314.646 545.916 314.919 545.006 314.525 544.277C314.132 543.548 313.222 543.276 312.493 543.669L313.917 546.309ZM322.994 538.068C322.26 538.453 321.977 539.359 322.362 540.093C322.747 540.827 323.653 541.11 324.387 540.725L322.994 538.068ZM334.942 535.348C335.686 534.983 335.992 534.084 335.627 533.34C335.261 532.597 334.362 532.291 333.619 532.656L334.942 535.348ZM344.436 527.592C343.679 527.927 343.336 528.813 343.671 529.57C344.006 530.328 344.892 530.67 345.65 530.335L344.436 527.592ZM356.562 525.846C357.337 525.553 357.727 524.688 357.434 523.913C357.141 523.138 356.275 522.747 355.5 523.041L356.562 525.846ZM366.843 519.173C366.05 519.413 365.601 520.25 365.841 521.043C366.08 521.836 366.917 522.284 367.711 522.045L366.843 519.173ZM378.91 519.214C379.724 519.06 380.26 518.275 380.106 517.461C379.952 516.647 379.168 516.112 378.354 516.266L378.91 519.214ZM390.004 514.808C389.177 514.862 388.55 515.576 388.604 516.403C388.658 517.229 389.372 517.856 390.199 517.802L390.004 514.808ZM401.612 517.684C402.44 517.719 403.139 517.077 403.174 516.249C403.21 515.421 402.567 514.722 401.739 514.687L401.612 517.684ZM413.396 515.757C412.576 515.642 411.817 516.214 411.702 517.034C411.587 517.854 412.159 518.613 412.979 518.728L413.396 515.757ZM424.218 520.834C425.025 521.023 425.832 520.522 426.021 519.715C426.21 518.909 425.709 518.102 424.902 517.913L424.218 520.834ZM436.168 521.075C435.381 520.817 434.533 521.246 434.275 522.033C434.017 522.82 434.446 523.668 435.233 523.926L436.168 521.075ZM445.939 527.948C446.702 528.272 447.582 527.917 447.906 527.154C448.23 526.392 447.875 525.511 447.112 525.187L445.939 527.948ZM457.677 530.217C456.945 529.829 456.037 530.108 455.649 530.841C455.261 531.573 455.541 532.48 456.273 532.868L457.677 530.217ZM466.137 538.652C466.833 539.102 467.761 538.902 468.211 538.207C468.661 537.511 468.461 536.582 467.766 536.133L466.137 538.652ZM477.299 542.918C476.646 542.407 475.703 542.523 475.193 543.175C474.683 543.828 474.798 544.77 475.45 545.281L477.299 542.918ZM484.116 552.733C484.718 553.302 485.667 553.275 486.236 552.673C486.806 552.071 486.779 551.122 486.177 550.553L484.116 552.733ZM494.283 559.002C493.74 558.376 492.793 558.31 492.167 558.853C491.542 559.397 491.475 560.344 492.019 560.969L494.283 559.002ZM499.054 569.951C499.531 570.629 500.467 570.792 501.144 570.316C501.822 569.839 501.985 568.903 501.508 568.226L499.054 569.951ZM507.74 578.164C507.338 577.44 506.424 577.178 505.7 577.58C504.976 577.982 504.714 578.895 505.116 579.62L507.74 578.164ZM510.098 589.865C510.419 590.629 511.298 590.988 512.062 590.667C512.825 590.345 513.184 589.466 512.863 588.702L510.098 589.865ZM516.811 599.734C516.574 598.94 515.739 598.488 514.945 598.724C514.151 598.961 513.699 599.796 513.935 600.59L516.811 599.734ZM516.595 611.68C516.745 612.495 517.527 613.033 518.342 612.883C519.157 612.733 519.696 611.951 519.546 611.137L516.595 611.68ZM521.068 622.771C521.003 621.946 520.28 621.329 519.454 621.394C518.629 621.46 518.012 622.182 518.077 623.008L521.068 622.771ZM518.418 634.431C518.403 635.259 519.062 635.943 519.89 635.958C520.719 635.973 521.402 635.314 521.417 634.486L518.418 634.431ZM520.673 646.144C520.762 645.321 520.167 644.581 519.343 644.491C518.52 644.402 517.78 644.997 517.69 645.821L520.673 646.144ZM515.983 657.126C515.827 657.94 516.359 658.726 517.172 658.883C517.986 659.04 518.772 658.507 518.929 657.694L515.983 657.126ZM516.286 669.07C516.503 668.271 516.031 667.446 515.231 667.23C514.432 667.013 513.608 667.485 513.391 668.284L516.286 669.07ZM510.005 679.256C509.735 680.039 510.151 680.893 510.934 681.163C511.717 681.433 512.571 681.018 512.841 680.235L510.005 679.256ZM508.694 691.146C509.011 690.381 508.648 689.503 507.882 689.186C507.117 688.869 506.24 689.232 505.922 689.997L508.694 691.146ZM501.253 700.436C500.895 701.183 501.21 702.079 501.957 702.437C502.704 702.795 503.6 702.48 503.958 701.733L501.253 700.436ZM498.684 712.065C499.078 711.336 498.807 710.426 498.078 710.032C497.35 709.638 496.439 709.909 496.045 710.637L498.684 712.065ZM151.668 553.248C153.38 554.389 155.078 555.486 156.763 556.538L158.352 553.993C156.693 552.957 155.02 551.877 153.332 550.752L151.668 553.248ZM167.103 562.539C170.747 564.491 174.33 566.235 177.854 567.784L179.061 565.037C175.611 563.521 172.098 561.811 168.52 559.895L167.103 562.539ZM189.095 572.137C193.016 573.449 196.865 574.519 200.65 575.365L201.305 572.438C197.623 571.614 193.873 570.572 190.047 569.292L189.095 572.137ZM212.554 577.337C216.633 577.774 220.638 577.959 224.577 577.918L224.546 574.918C220.722 574.958 216.835 574.779 212.874 574.354L212.554 577.337ZM236.596 577.099C240.605 576.597 244.549 575.877 248.44 574.972L247.76 572.05C243.964 572.933 240.122 573.634 236.223 574.122L236.596 577.099ZM260.001 571.722C263.79 570.481 267.536 569.087 271.249 567.575L270.117 564.797C266.461 566.286 262.781 567.654 259.067 568.872L260.001 571.722ZM282.197 562.761C285.783 561.078 289.349 559.312 292.904 557.491L291.536 554.821C288.004 556.63 284.47 558.381 280.923 560.045L282.197 562.761ZM303.451 551.95C306.934 550.085 310.424 548.193 313.917 546.309L312.493 543.669C308.992 545.557 305.513 547.443 302.035 549.306L303.451 551.95ZM324.387 540.725C327.883 538.891 331.398 537.09 334.942 535.348L333.619 532.656C330.045 534.413 326.507 536.226 322.994 538.068L324.387 540.725ZM345.65 530.335C349.247 528.744 352.881 527.239 356.562 525.846L355.5 523.041C351.762 524.455 348.077 525.982 344.436 527.592L345.65 530.335ZM367.711 522.045C369.585 521.479 371.474 520.946 373.377 520.451L372.623 517.548C370.68 518.053 368.754 518.596 366.843 519.173L367.711 522.045ZM373.377 520.451C375.189 519.981 377.034 519.568 378.91 519.214L378.354 516.266C376.413 516.632 374.501 517.06 372.623 517.548L373.377 520.451ZM390.199 517.802C393.933 517.559 397.747 517.52 401.612 517.684L401.739 514.687C397.771 514.519 393.85 514.558 390.004 514.808L390.199 517.802ZM412.979 518.728C416.711 519.252 420.466 519.955 424.218 520.834L424.902 517.913C421.063 517.014 417.22 516.294 413.396 515.757L412.979 518.728ZM435.233 523.926C438.832 525.106 442.408 526.447 445.939 527.948L447.112 525.187C443.503 523.653 439.848 522.282 436.168 521.075L435.233 523.926ZM456.273 532.868C459.631 534.647 462.925 536.575 466.137 538.652L467.766 536.133C464.48 534.008 461.11 532.036 457.677 530.217L456.273 532.868ZM475.45 545.281C478.446 547.624 481.341 550.109 484.116 552.733L486.177 550.553C483.332 547.863 480.366 545.317 477.299 542.918L475.45 545.281ZM492.019 560.969C494.505 563.831 496.856 566.826 499.054 569.951L501.508 568.226C499.25 565.014 496.835 561.939 494.283 559.002L492.019 560.969ZM505.116 579.62C506.944 582.913 508.61 586.329 510.098 589.865L512.863 588.702C511.333 585.064 509.619 581.551 507.74 578.164L505.116 579.62ZM513.935 600.59C515.003 604.179 515.895 607.876 516.595 611.68L519.546 611.137C518.826 607.227 517.909 603.426 516.811 599.734L513.935 600.59ZM518.077 623.008C518.371 626.725 518.489 630.533 518.418 634.431L521.417 634.486C521.49 630.492 521.37 626.587 521.068 622.771L518.077 623.008ZM517.69 645.821C517.289 649.516 516.723 653.285 515.983 657.126L518.929 657.694C519.684 653.774 520.263 649.923 520.673 646.144L517.69 645.821ZM513.391 668.284C512.414 671.883 511.288 675.54 510.005 679.256L512.841 680.235C514.145 676.457 515.291 672.736 516.286 669.07L513.391 668.284ZM505.922 689.997C504.499 693.431 502.944 696.911 501.253 700.436L503.958 701.733C505.672 698.161 507.249 694.631 508.694 691.146L505.922 689.997ZM496.045 710.637C495.127 712.333 494.178 714.039 493.198 715.755L495.802 717.244C496.794 715.508 497.754 713.782 498.684 712.065L496.045 710.637Z" fill="#144B66"/>
<path d="M140.5 451.25H163.625" stroke="#144B66" stroke-width="0.9375" stroke-linecap="round"/>
<path d="M143.625 456.25H166.75" stroke="#144B66" stroke-width="0.9375" stroke-linecap="round"/>
<path d="M140.5 461.25H163.625" stroke="#144B66" stroke-width="0.9375" stroke-linecap="round"/>
<path d="M143.625 466.25H166.75" stroke="#144B66" stroke-width="0.9375" stroke-linecap="round"/>
<path d="M140.5 471.25H163.625" stroke="#144B66" stroke-width="0.9375" stroke-linecap="round"/>
<path fill-rule="evenodd" clip-rule="evenodd" d="M168.375 446.25H137.125C136.089 446.25 135.25 447.089 135.25 448.125V457.5H134V448.125C134 446.399 135.399 445 137.125 445H168.375C170.101 445 171.5 446.399 171.5 448.125V481H170.25V448.125C170.25 447.089 169.411 446.25 168.375 446.25ZM134 460.5V491.875C134 493.601 135.399 495 137.125 495H168.375C170.101 495 171.5 493.601 171.5 491.875V488H170.25V491.875C170.25 492.911 169.411 493.75 168.375 493.75H137.125C136.089 493.75 135.25 492.911 135.25 491.875V460.5H134Z" fill="#144B66"/>
<path d="M294.134 193.464H310.652" stroke="#144B66" stroke-width="0.669643" stroke-linecap="round"/>
<path d="M296.366 197.036H312.884" stroke="#144B66" stroke-width="0.669643" stroke-linecap="round"/>
<path d="M294.134 200.607H310.652" stroke="#144B66" stroke-width="0.669643" stroke-linecap="round"/>
<path d="M296.366 204.179H312.884" stroke="#144B66" stroke-width="0.669643" stroke-linecap="round"/>
<path d="M294.134 207.75H310.652" stroke="#144B66" stroke-width="0.669643" stroke-linecap="round"/>
<path fill-rule="evenodd" clip-rule="evenodd" d="M314.045 189.893H291.723C290.984 189.893 290.384 190.492 290.384 191.232V197.482C290.384 197.729 290.184 197.929 289.938 197.929C289.691 197.929 289.491 197.729 289.491 197.482V191.232C289.491 189.999 290.49 189 291.723 189H314.045C315.277 189 316.277 189.999 316.277 191.232V214.268C316.277 214.514 316.077 214.714 315.83 214.714C315.584 214.714 315.384 214.514 315.384 214.268V191.232C315.384 190.492 314.784 189.893 314.045 189.893ZM289.938 200.071C289.691 200.071 289.491 200.271 289.491 200.518V222.482C289.491 223.715 290.49 224.714 291.723 224.714H314.045C315.277 224.714 316.277 223.715 316.277 222.482V220.161C316.277 219.914 316.077 219.714 315.83 219.714C315.584 219.714 315.384 219.914 315.384 220.161V222.482C315.384 223.222 314.784 223.821 314.045 223.821H291.723C290.984 223.821 290.384 223.222 290.384 222.482V200.518C290.384 200.271 290.184 200.071 289.938 200.071Z" fill="#144B66"/>
<g filter="url(#filter0_b_242_2)">
<circle cx="314.045" cy="217.571" r="14.2857" fill="white" fill-opacity="0.1"/>
<circle cx="314.045" cy="217.571" r="13.3929" stroke="#144B66" stroke-width="1.78571"/>
</g>
<path d="M324.759 226.5L337.259 239" stroke="#144B66" stroke-width="1.78571" stroke-linecap="round"/>
<path d="M401.5 683.25H424.625" stroke="#144B66" stroke-width="0.9375" stroke-linecap="round"/>
<path d="M404.625 688.25H427.75" stroke="#144B66" stroke-width="0.9375" stroke-linecap="round"/>
<path d="M401.5 693.25H424.625" stroke="#144B66" stroke-width="0.9375" stroke-linecap="round"/>
<path d="M404.625 698.25H427.75" stroke="#144B66" stroke-width="0.9375" stroke-linecap="round"/>
<path d="M401.5 703.25H424.625" stroke="#144B66" stroke-width="0.9375" stroke-linecap="round"/>
<path fill-rule="evenodd" clip-rule="evenodd" d="M429.375 678.25H398.125C397.089 678.25 396.25 679.089 396.25 680.125V689.5H395V680.125C395 678.399 396.399 677 398.125 677H429.375C431.101 677 432.5 678.399 432.5 680.125V718H431.25V680.125C431.25 679.089 430.411 678.25 429.375 678.25ZM395 692.5V723.875C395 725.601 396.399 727 398.125 727H429.375C430.704 727 431.84 726.17 432.291 725H430.875C430.533 725.455 429.988 725.75 429.375 725.75H398.125C397.089 725.75 396.25 724.911 396.25 723.875V692.5H395Z" fill="#144B66"/>
<path d="M426.5 721C426.224 721 426 721.224 426 721.5C426 721.776 426.224 722 426.5 722V721ZM439.354 721.854C439.549 721.658 439.549 721.342 439.354 721.146L436.172 717.964C435.976 717.769 435.66 717.769 435.464 717.964C435.269 718.16 435.269 718.476 435.464 718.672L438.293 721.5L435.464 724.328C435.269 724.524 435.269 724.84 435.464 725.036C435.66 725.231 435.976 725.231 436.172 725.036L439.354 721.854ZM426.5 722H439V721H426.5V722Z" fill="#144B66"/>
<defs>
<filter id="filter0_b_242_2" x="296.188" y="199.714" width="35.7143" height="35.7143" filterUnits="userSpaceOnUse" color-interpolation-filters="sRGB">
<feFlood flood-opacity="0" result="BackgroundImageFix"/>
<feGaussianBlur in="BackgroundImageFix" stdDeviation="1.78571"/>
<feComposite in2="SourceAlpha" operator="in" result="effect1_backgroundBlur_242_2"/>
<feBlend mode="normal" in="SourceGraphic" in2="effect1_backgroundBlur_242_2" result="shape"/>
</filter>
</defs>
</svg>
