<svg width="208" height="81" viewBox="0 0 208 81" fill="none" xmlns="http://www.w3.org/2000/svg">
<path d="M13.3981 15.9818C15.4345 15.9818 17.1654 16.6364 18.5909 17.9455C21.3836 20.4473 22.78 24.4036 22.78 29.8145C22.78 35.1964 21.2381 39.4291 18.1545 42.5127C16.5545 44.0545 14.7072 44.8982 12.6127 45.0436C9.84905 45.0436 7.69632 44.0982 6.1545 42.2073C4.61268 40.3164 3.50723 38.2073 2.83814 35.88C2.19814 33.5236 1.87814 31.2545 1.87814 29.0727C1.87814 25.3491 2.76541 22.28 4.53996 19.8655C6.40177 17.2764 9.3545 15.9818 13.3981 15.9818ZM13.0927 19.6036C9.1945 19.6036 6.76541 21.4509 5.80541 25.1455C5.5145 26.1345 5.36905 27.4 5.36905 28.9418C5.36905 30.4836 5.65996 32.2727 6.24177 34.3091C7.02723 37.0436 8.19087 38.9636 9.73268 40.0691C10.6345 40.7673 11.7254 41.1164 13.0054 41.1164C14.2854 41.1164 15.4345 40.5491 16.4527 39.4145C17.4709 38.2509 18.169 36.7818 18.5472 35.0073C18.9254 33.2327 19.1145 31.4436 19.1145 29.64C19.1145 26.44 18.649 23.9673 17.7181 22.2218C16.8163 20.4764 15.2745 19.6036 13.0927 19.6036ZM32.8453 44.9564C31.8562 44.9564 30.9398 44.6218 30.0962 43.9527C30.0962 43.9527 29.9071 43.7927 29.5289 43.4727V56.5636C29.3544 57.1455 29.0489 57.6255 28.6126 58.0036C28.1762 58.4109 27.7108 58.6145 27.2162 58.6145C26.4598 58.6145 26.0817 58.1055 26.0817 57.0873V26.6727C26.2562 25.9164 26.4598 25.3782 26.6926 25.0582C26.9544 24.7382 27.3471 24.5782 27.8708 24.5782C28.4235 24.5782 28.7726 24.7091 28.918 24.9709C29.0926 25.2036 29.2962 25.8727 29.5289 26.9782C29.6453 26.3964 30.1108 25.8582 30.9253 25.3636C31.7398 24.8691 32.8308 24.6218 34.198 24.6218C37.1653 24.6218 39.2744 25.6982 40.5253 27.8509C41.7762 30.0036 42.4017 32.5491 42.4017 35.4873C42.4017 38.3964 41.5435 40.7091 39.8271 42.4255C38.1398 44.1127 35.8126 44.9564 32.8453 44.9564ZM29.5289 31.8655V39.9818C29.7035 40.0691 29.9071 40.2145 30.1398 40.4182C30.9835 41.1745 31.8998 41.5527 32.8889 41.5527C36.9035 41.5527 38.9108 39.4873 38.9108 35.3564C38.9108 31.8364 38.0089 29.6109 36.2053 28.68C35.4489 28.2727 34.518 28.0691 33.4126 28.0691C32.3362 28.2145 31.4198 28.6945 30.6635 29.5091C29.9071 30.2945 29.5289 31.08 29.5289 31.8655ZM47.4955 17.4218C48.0192 17.4218 48.5137 17.6691 48.9792 18.1636C49.4446 18.6582 49.6773 19.1818 49.6773 19.7345C49.6773 20.2582 49.4155 20.7964 48.8919 21.3491C48.3973 21.9018 47.8737 22.1782 47.321 22.1782C46.7683 22.1782 46.2592 21.9455 45.7937 21.48C45.3573 21.0145 45.1392 20.4182 45.1392 19.6909C45.1392 18.2945 45.8955 17.5382 47.4083 17.4218C47.4373 17.4218 47.4664 17.4218 47.4955 17.4218ZM49.3283 40.2873L49.3719 43.3418C49.3719 43.8945 49.1537 44.36 48.7173 44.7382C48.281 45.0873 47.8155 45.2618 47.321 45.2618C46.5937 45.2618 46.2155 44.8982 46.1864 44.1709C45.8083 34.8909 45.6192 29.7564 45.6192 28.7673C45.6192 27.7782 45.6628 26.5709 45.7501 25.1455C45.8083 24.6218 46.1428 24.36 46.7537 24.36C48.2955 24.36 49.1683 24.9855 49.3719 26.2364C49.4592 26.8764 49.5028 27.3855 49.5028 27.7636L49.3283 30.5127V40.2873ZM56.0322 43.6473L55.5522 25.9309C55.5522 25.3782 55.7413 24.9273 56.1195 24.5782C56.4977 24.2291 56.8759 24.0545 57.254 24.0545C58.185 24.0545 58.7231 24.4473 58.8686 25.2327C58.985 26.0182 59.0431 26.8327 59.0431 27.6764C60.614 25.6109 62.5777 24.5782 64.934 24.5782C68.5413 24.5782 70.345 28.6945 70.345 36.9273C70.345 37.6836 70.345 38.8327 70.345 40.3745C70.345 41.8873 70.2577 42.9927 70.0831 43.6909C69.8795 44.5636 69.254 45 68.2068 45C67.5086 45 67.1595 44.5345 67.1595 43.6036L67.2031 41.16C67.2031 37.7855 67.0868 35.4873 66.854 34.2655C66.6504 33.0145 66.4468 32.0255 66.2431 31.2982C65.7486 29.7273 64.9486 28.9418 63.8431 28.9418C62.3886 28.9418 61.3704 29.4655 60.7886 30.5127C60.1486 31.6473 59.7704 32.9855 59.654 34.5273C59.4504 37.2327 59.3486 40.0982 59.3486 43.1236C59.3486 43.7055 59.1304 44.1709 58.694 44.52C58.2577 44.8691 57.734 45.0436 57.1231 45.0436C56.3959 45.0436 56.0322 44.5782 56.0322 43.6473ZM76.9842 17.4218C77.5078 17.4218 78.0023 17.6691 78.4678 18.1636C78.9332 18.6582 79.166 19.1818 79.166 19.7345C79.166 20.2582 78.9042 20.7964 78.3805 21.3491C77.886 21.9018 77.3623 22.1782 76.8096 22.1782C76.2569 22.1782 75.7478 21.9455 75.2823 21.48C74.846 21.0145 74.6278 20.4182 74.6278 19.6909C74.6278 18.2945 75.3842 17.5382 76.8969 17.4218C76.926 17.4218 76.9551 17.4218 76.9842 17.4218ZM78.8169 40.2873L78.8605 43.3418C78.8605 43.8945 78.6423 44.36 78.206 44.7382C77.7696 45.0873 77.3042 45.2618 76.8096 45.2618C76.0823 45.2618 75.7042 44.8982 75.6751 44.1709C75.2969 34.8909 75.1078 29.7564 75.1078 28.7673C75.1078 27.7782 75.1514 26.5709 75.2387 25.1455C75.2969 24.6218 75.6314 24.36 76.2423 24.36C77.7842 24.36 78.6569 24.9855 78.8605 26.2364C78.9478 26.8764 78.9914 27.3855 78.9914 27.7636L78.8169 30.5127V40.2873ZM91.5863 24.6655C93.6809 24.6655 95.3972 25.6691 96.7354 27.6764C98.1027 29.6836 98.7863 32.0982 98.7863 34.92C98.7863 37.7127 98.0881 40.0982 96.6918 42.0764C95.3245 44.0545 93.4918 45.0436 91.1936 45.0436C88.9245 45.0436 87.0918 44.04 85.6954 42.0327C84.299 39.9964 83.6009 37.7418 83.6009 35.2691C83.6009 32.0982 84.2409 29.5673 85.5209 27.6764C86.8881 25.6691 88.91 24.6655 91.5863 24.6655ZM91.0627 28.2436C89.8409 28.2436 88.8372 28.8836 88.0518 30.1636C87.2663 31.4436 86.8736 32.7964 86.8736 34.2218C86.8736 36.4327 87.31 38.12 88.1827 39.2836C89.0554 40.4473 90.0445 41.0291 91.15 41.0291C93.1281 41.0291 94.3936 40.1709 94.9463 38.4545C95.179 37.64 95.2954 36.6218 95.2954 35.4C95.2954 30.6291 93.8845 28.2436 91.0627 28.2436ZM118.262 16.3745C118.553 16.2 118.931 16.1127 119.397 16.1127C119.862 16.1127 120.284 16.3164 120.662 16.7236C121.04 17.1018 121.229 17.5527 121.229 18.0764C121.229 29.4509 121.273 36.3309 121.36 38.7164C121.477 41.0727 121.535 42.28 121.535 42.3382C121.535 42.9782 121.36 43.5891 121.011 44.1709C120.662 44.7236 120.269 45 119.833 45C119.426 45 119.106 44.9855 118.873 44.9564C118.669 44.8982 118.48 44.84 118.306 44.7818C118.131 44.7236 117.957 44.6073 117.782 44.4327L117.346 43.9964C117.229 43.88 117.069 43.6618 116.866 43.3418C116.691 42.9927 116.546 42.7164 116.429 42.5127C116.313 42.3091 116.124 41.96 115.862 41.4655C115.629 40.9418 115.091 39.8945 114.248 38.3236C113.433 36.7527 112.691 35.3418 112.022 34.0909C109.724 29.8727 107.586 26.5418 105.608 24.0982C105.608 33.5527 105.346 40.1127 104.822 43.7782C104.735 44.4764 104.197 44.8255 103.208 44.8255C102.742 44.8255 102.349 44.7091 102.029 44.4764C101.738 44.2436 101.593 43.8655 101.593 43.3418C101.593 42.8182 101.695 39.9382 101.898 34.7018C102.131 29.4655 102.248 26.2073 102.248 24.9273C102.248 23.6182 102.248 22.7891 102.248 22.44C102.248 20.3455 102.408 19.1673 102.728 18.9055C103.048 18.6436 103.382 18.5127 103.731 18.5127C105.331 18.5127 107.775 21.1309 111.062 26.3673C111.702 27.3855 112.924 29.5236 114.728 32.7818C116.531 36.0109 117.608 38.0036 117.957 38.76L117.433 20.6509C117.433 18.1491 117.709 16.7236 118.262 16.3745ZM130.97 24.7964C132.512 24.7964 133.981 25.2473 135.377 26.1491C136.774 27.0509 137.472 28.1709 137.472 29.5091C137.472 30.8182 136.905 32.0982 135.77 33.3491C134.636 34.5709 133.123 35.3127 131.232 35.5745C130.417 35.6909 129.196 35.7491 127.567 35.7491C127.887 38.2218 128.512 39.8509 129.443 40.6364C129.734 40.9564 130.127 41.1164 130.621 41.1164C132.425 41.1164 133.937 40.5491 135.159 39.4145C136.381 38.2509 137.254 37.6691 137.777 37.6691C138.01 37.6691 138.359 37.8873 138.825 38.3236C139.29 38.76 139.523 39.1673 139.523 39.5455C139.523 40.3018 138.607 41.3927 136.774 42.8182C135.959 43.4873 134.97 44.0545 133.807 44.52C132.672 44.9564 131.61 45.1745 130.621 45.1745C128.09 45.1745 126.228 43.5455 125.036 40.2873C124.279 38.28 123.901 36.0691 123.901 33.6545C123.901 31.24 124.468 29.16 125.603 27.4145C126.737 25.6691 128.527 24.7964 130.97 24.7964ZM131.188 27.8073C130.083 27.8073 129.137 28.4327 128.352 29.6836C128.061 30.12 127.785 31.1091 127.523 32.6509C131.596 32.6509 133.632 31.6473 133.632 29.64C133.632 28.4182 132.817 27.8073 131.188 27.8073ZM142.815 30.1636C142.815 28.4473 143.426 27.08 144.647 26.0618C145.869 25.0436 147.28 24.5345 148.88 24.5345C150.509 24.5345 152.066 24.8255 153.549 25.4073C155.033 25.9891 155.775 26.76 155.775 27.72C155.775 28.2145 155.586 28.6073 155.207 28.8982C154.829 29.1891 154.495 29.3345 154.204 29.3345C153.942 29.3345 153.724 29.3345 153.549 29.3345C153.404 29.3055 152.822 29.0291 151.804 28.5055C150.815 27.9818 149.898 27.72 149.055 27.72C148.211 27.72 147.484 27.9382 146.873 28.3745C146.291 28.7818 146 29.3927 146 30.2073C146 31.0218 146.335 31.6618 147.004 32.1273C147.702 32.5927 148.909 33 150.626 33.3491C152.342 33.6691 153.651 34.1345 154.553 34.7455C155.484 35.3564 155.949 36.4909 155.949 38.1491C155.949 40.5636 155.309 42.28 154.029 43.2982C152.778 44.2873 151.251 44.7818 149.447 44.7818C147.644 44.7818 146.102 44.5345 144.822 44.04C143.571 43.5455 142.946 42.8036 142.946 41.8145C142.946 40.68 143.513 40.1127 144.647 40.1127C144.938 40.1127 145.578 40.3164 146.567 40.7236C147.557 41.1309 148.531 41.3345 149.491 41.3345C150.48 41.3345 151.222 41.0291 151.717 40.4182C152.24 39.7782 152.502 39.0509 152.502 38.2364C152.502 37.4218 152.167 36.84 151.498 36.4909C150.829 36.1127 149.811 35.8073 148.444 35.5745C147.077 35.3418 146.073 35.0945 145.433 34.8327C143.687 34.1345 142.815 32.5782 142.815 30.1636ZM159.954 24.6218L162.135 24.6655C162.63 24.6655 162.906 24.6509 162.964 24.6218V15.6764C162.994 15.1818 163.241 14.76 163.706 14.4109C164.172 14.0618 164.608 13.8873 165.015 13.8873C165.423 13.8873 165.743 14.0182 165.975 14.28C166.237 14.5418 166.354 14.9491 166.324 15.5018C166.295 16.0545 166.281 19.08 166.281 24.5782L171.386 24.4036C172.259 24.4036 172.695 24.9127 172.695 25.9309C172.695 26.6873 172.463 27.2545 171.997 27.6327C171.561 28.0109 171.081 28.2145 170.557 28.2436C170.063 28.2727 169.568 28.2873 169.074 28.2873L166.412 28.2436C166.412 29.4364 166.528 31.7927 166.761 35.3127C167.023 38.8327 167.226 41.1164 167.372 42.1636C167.517 43.1818 167.546 43.8509 167.459 44.1709C167.372 44.4618 167.212 44.6655 166.979 44.7818C166.601 44.9564 166.092 45.0436 165.452 45.0436C164.812 45.0436 164.434 44.6945 164.317 43.9964C163.735 40.1855 163.343 34.9491 163.139 28.2873C162.877 28.3164 161.874 28.3309 160.128 28.3309C158.383 28.3309 157.51 27.8218 157.51 26.8036C157.51 25.3491 158.324 24.6218 159.954 24.6218ZM176.874 39.7636C177.514 39.7636 178.066 39.9964 178.532 40.4618C178.997 40.9273 179.274 41.5673 179.361 42.3818C179.361 43.0218 179.128 43.6182 178.663 44.1709C178.197 44.6945 177.644 44.9564 177.004 44.9564C176.394 44.9564 175.841 44.7964 175.346 44.4764C174.852 44.1273 174.604 43.6036 174.604 42.9055C174.604 42.2073 174.823 41.5091 175.259 40.8109C175.724 40.1127 176.263 39.7636 176.874 39.7636Z" fill="#00A9FF"/>
<path d="M106.271 69.6618C106.067 69.6618 105.878 69.6327 105.704 69.5746C105.151 69.4582 104.758 69.1236 104.525 68.5709C104.351 68.0764 104.394 67.5236 104.656 66.9127C104.947 66.3018 105.325 65.6182 105.791 64.8618C105.965 64.6 106.125 64.3382 106.271 64.0764C106.445 63.7855 106.591 63.5236 106.707 63.2909C106.765 63.2036 106.809 63.1309 106.838 63.0727C106.867 62.9855 106.896 62.9127 106.925 62.8546C106.053 62.7091 105.034 62.68 103.871 62.7673C102.736 62.8255 101.456 63.0436 100.031 63.4218C98.7799 63.7418 97.4272 64.1636 95.9726 64.6873C94.5472 65.1818 93.0345 65.7782 91.4345 66.4764C91.1145 66.5927 90.7945 66.5927 90.4745 66.4764C90.1545 66.36 89.9217 66.1418 89.7763 65.8218C89.6017 65.5018 89.5872 65.1673 89.7326 64.8182C89.8781 64.44 90.1108 64.1927 90.4308 64.0764C92.0599 63.3491 93.6163 62.7236 95.0999 62.2C96.6126 61.6473 98.0381 61.2109 99.3763 60.8909C102.954 59.9891 105.878 59.8436 108.147 60.4546C108.816 60.6291 109.282 61.0364 109.544 61.6764C109.805 62.3164 109.747 63.0291 109.369 63.8146C108.991 64.6 108.54 65.4146 108.016 66.2582C107.987 66.3164 107.944 66.3891 107.885 66.4764C107.827 66.5636 107.769 66.6655 107.711 66.7818C108.38 66.6364 109.369 66.3455 110.678 65.9091C111.987 65.4727 113.791 64.8327 116.089 63.9891C116.409 63.8727 116.729 63.9018 117.049 64.0764C117.398 64.2218 117.631 64.4691 117.747 64.8182C117.893 65.1382 117.893 65.4727 117.747 65.8218C117.602 66.1418 117.34 66.3746 116.962 66.52C115.624 66.9855 114.402 67.4073 113.296 67.7855C112.191 68.1636 111.202 68.4836 110.329 68.7455C109.165 69.0946 108.278 69.3418 107.667 69.4873C107.056 69.6036 106.591 69.6618 106.271 69.6618ZM120.141 72.5855C119.938 72.5855 119.734 72.5564 119.53 72.4982C119.327 72.4691 119.123 72.44 118.92 72.4109C118.396 72.2655 118.032 71.96 117.829 71.4946C117.567 70.9127 117.567 70.2146 117.829 69.4C118.12 68.5564 118.585 67.48 119.225 66.1709C119.341 65.9382 119.458 65.6764 119.574 65.3855C119.72 65.0946 119.85 64.8182 119.967 64.5564C119.589 64.7018 119.181 64.9491 118.745 65.2982C118.338 65.6182 117.916 65.9527 117.48 66.3018C117.189 66.5055 116.869 66.5927 116.52 66.5636C116.141 66.5055 115.836 66.3455 115.603 66.0836C115.4 65.7927 115.327 65.4727 115.385 65.1236C115.414 64.7746 115.56 64.4691 115.821 64.2073C116.229 63.9164 116.65 63.5964 117.087 63.2473C117.552 62.8982 118.018 62.6073 118.483 62.3746C119.676 61.7636 120.767 61.6036 121.756 61.8946C122.221 61.9818 122.57 62.2727 122.803 62.7673C123.036 63.2327 123.021 63.8146 122.76 64.5127C122.527 65.2109 122.12 66.1564 121.538 67.3491C121.392 67.6982 121.232 68.0473 121.058 68.3964C120.912 68.7455 120.767 69.08 120.621 69.4C120.592 69.5164 120.549 69.6182 120.49 69.7055C120.461 69.7927 120.432 69.88 120.403 69.9673C121.014 69.88 121.901 69.5746 123.065 69.0509C124.258 68.4982 125.858 67.4218 127.865 65.8218C128.941 64.9782 129.916 64.1636 130.789 63.3782C131.661 62.5636 132.36 61.8946 132.883 61.3709C133.407 60.8473 133.669 60.5855 133.669 60.5855C134.018 60.1782 134.44 60.0473 134.934 60.1927C135.167 60.2218 135.356 60.3236 135.501 60.4982C135.647 60.6436 135.763 60.7891 135.85 60.9346C136.054 61.3418 136.069 61.8218 135.894 62.3746C135.749 62.8982 135.429 63.7564 134.934 64.9491C134.76 65.3273 134.585 65.7055 134.41 66.0836C134.265 66.4618 134.12 66.8109 133.974 67.1309C133.945 67.2473 133.916 67.3491 133.887 67.4364C133.887 67.4946 133.872 67.5527 133.843 67.6109C134.396 67.5236 134.978 67.2909 135.589 66.9127C136.229 66.5055 136.84 66.0546 137.421 65.56C138.032 65.0655 138.541 64.6436 138.949 64.2946C139.24 64.0327 139.56 63.9164 139.909 63.9455C140.258 63.9746 140.563 64.12 140.825 64.3818C141.058 64.6727 141.16 64.9927 141.13 65.3418C141.13 65.6909 140.985 65.9964 140.694 66.2582C139.792 67.0436 138.861 67.7855 137.901 68.4836C136.97 69.1818 136.025 69.7055 135.065 70.0546C134.134 70.3746 133.189 70.4182 132.229 70.1855C131.763 69.9818 131.429 69.6909 131.225 69.3127C131.05 68.9055 130.992 68.4546 131.05 67.96C131.138 67.4655 131.312 66.8546 131.574 66.1273C131.254 66.4182 130.92 66.6946 130.57 66.9564C130.25 67.2182 129.901 67.5091 129.523 67.8291C125.509 71 122.381 72.5855 120.141 72.5855ZM149.824 70.0982C149.475 70.0982 149.184 69.9964 148.951 69.7927C148.486 69.4146 148.355 68.9346 148.559 68.3527C148.559 68.3236 148.66 67.9746 148.864 67.3055C149.097 66.6364 149.359 65.88 149.649 65.0364C149.795 64.5418 149.926 64.12 150.042 63.7709C150.159 63.3927 150.26 63.0582 150.348 62.7673C149.562 63.0582 148.602 63.4218 147.468 63.8582C146.333 64.2655 145.14 64.7018 143.889 65.1673C142.668 65.6327 141.475 66.0836 140.311 66.52C139.991 66.6364 139.671 66.6218 139.351 66.4764C139.002 66.3018 138.755 66.04 138.609 65.6909C138.493 65.3709 138.522 65.0509 138.697 64.7309C138.842 64.3818 139.089 64.1346 139.439 63.9891C140.748 63.5236 142.1 63.0436 143.497 62.5491C144.893 62.0255 146.188 61.5455 147.38 61.1091C148.573 60.6436 149.548 60.2655 150.304 59.9746C151.06 59.6836 151.439 59.5382 151.439 59.5382C151.584 59.5091 151.729 59.4946 151.875 59.4946C152.02 59.4655 152.151 59.48 152.268 59.5382C152.675 59.5964 152.966 59.8291 153.14 60.2364C153.286 60.4691 153.344 60.7746 153.315 61.1527C153.315 61.5018 153.242 62.0109 153.097 62.68C153.009 63.0582 152.893 63.48 152.748 63.9455C152.631 64.3818 152.471 64.8909 152.268 65.4727C152.239 65.5891 152.209 65.6909 152.18 65.7782C152.151 65.8655 152.122 65.9673 152.093 66.0836C153.257 65.4436 154.682 64.7746 156.369 64.0764C156.689 63.9309 157.009 63.9309 157.329 64.0764C157.679 64.1927 157.911 64.4109 158.028 64.7309C158.202 65.0509 158.217 65.3855 158.071 65.7346C157.926 66.0836 157.693 66.3309 157.373 66.4764C156.064 67.0582 154.886 67.6109 153.839 68.1346C152.82 68.6582 152.006 69.08 151.395 69.4C150.784 69.72 150.479 69.88 150.479 69.88C150.304 70.0255 150.086 70.0982 149.824 70.0982ZM160.326 72.5855C160.122 72.5855 159.919 72.5564 159.715 72.4982C159.512 72.4691 159.308 72.44 159.104 72.4109C158.581 72.2655 158.217 71.96 158.013 71.4946C157.752 70.9127 157.752 70.2146 158.013 69.4C158.304 68.5564 158.77 67.48 159.41 66.1709C159.526 65.9382 159.642 65.6764 159.759 65.3855C159.904 65.0946 160.035 64.8182 160.152 64.5564C159.773 64.7018 159.366 64.9491 158.93 65.2982C158.522 65.6182 158.101 65.9527 157.664 66.3018C157.373 66.5055 157.053 66.5927 156.704 66.5636C156.326 66.5055 156.021 66.3455 155.788 66.0836C155.584 65.7927 155.512 65.4727 155.57 65.1236C155.599 64.7746 155.744 64.4691 156.006 64.2073C156.413 63.9164 156.835 63.5964 157.272 63.2473C157.737 62.8982 158.202 62.6073 158.668 62.3746C159.861 61.7636 160.952 61.6036 161.941 61.8946C162.406 61.9818 162.755 62.2727 162.988 62.7673C163.221 63.2327 163.206 63.8146 162.944 64.5127C162.712 65.2109 162.304 66.1564 161.722 67.3491C161.577 67.6982 161.417 68.0473 161.242 68.3964C161.097 68.7455 160.952 69.08 160.806 69.4C160.777 69.5164 160.733 69.6182 160.675 69.7055C160.646 69.7927 160.617 69.88 160.588 69.9673C161.199 69.88 162.086 69.5746 163.25 69.0509C164.442 68.4982 166.042 67.4218 168.05 65.8218C169.126 64.9782 170.101 64.1636 170.973 63.3782C171.846 62.5636 172.544 61.8946 173.068 61.3709C173.592 60.8473 173.853 60.5855 173.853 60.5855C174.202 60.1782 174.624 60.0473 175.119 60.1927C175.352 60.2218 175.541 60.3236 175.686 60.4982C175.832 60.6436 175.948 60.7891 176.035 60.9346C176.239 61.3418 176.253 61.8218 176.079 62.3746C175.933 62.8982 175.613 63.7564 175.119 64.9491C174.944 65.3273 174.77 65.7055 174.595 66.0836C174.45 66.4618 174.304 66.8109 174.159 67.1309C174.13 67.2473 174.101 67.3491 174.072 67.4364C174.072 67.4946 174.057 67.5527 174.028 67.6109C174.581 67.5236 175.162 67.2909 175.773 66.9127C176.413 66.5055 177.024 66.0546 177.606 65.56C178.217 65.0655 178.726 64.6436 179.133 64.2946C179.424 64.0327 179.744 63.9164 180.093 63.9455C180.442 63.9746 180.748 64.12 181.01 64.3818C181.242 64.6727 181.344 64.9927 181.315 65.3418C181.315 65.6909 181.17 65.9964 180.879 66.2582C179.977 67.0436 179.046 67.7855 178.086 68.4836C177.155 69.1818 176.21 69.7055 175.25 70.0546C174.319 70.3746 173.373 70.4182 172.413 70.1855C171.948 69.9818 171.613 69.6909 171.41 69.3127C171.235 68.9055 171.177 68.4546 171.235 67.96C171.322 67.4655 171.497 66.8546 171.759 66.1273C171.439 66.4182 171.104 66.6946 170.755 66.9564C170.435 67.2182 170.086 67.5091 169.708 67.8291C165.693 71 162.566 72.5855 160.326 72.5855ZM195.376 69.6618C195.172 69.6618 194.983 69.6327 194.809 69.5746C194.256 69.4582 193.863 69.1236 193.63 68.5709C193.456 68.0764 193.5 67.5236 193.761 66.9127C194.052 66.3018 194.43 65.6182 194.896 64.8618C195.07 64.6 195.23 64.3382 195.376 64.0764C195.55 63.7855 195.696 63.5236 195.812 63.2909C195.87 63.2036 195.914 63.1309 195.943 63.0727C195.972 62.9855 196.001 62.9127 196.03 62.8546C195.158 62.7091 194.14 62.68 192.976 62.7673C191.841 62.8255 190.561 63.0436 189.136 63.4218C187.885 63.7418 186.532 64.1636 185.078 64.6873C183.652 65.1818 182.14 65.7782 180.54 66.4764C180.22 66.5927 179.9 66.5927 179.58 66.4764C179.26 66.36 179.027 66.1418 178.881 65.8218C178.707 65.5018 178.692 65.1673 178.838 64.8182C178.983 64.44 179.216 64.1927 179.536 64.0764C181.165 63.3491 182.721 62.7236 184.205 62.2C185.718 61.6473 187.143 61.2109 188.481 60.8909C192.06 59.9891 194.983 59.8436 197.252 60.4546C197.921 60.6291 198.387 61.0364 198.649 61.6764C198.91 62.3164 198.852 63.0291 198.474 63.8146C198.096 64.6 197.645 65.4146 197.121 66.2582C197.092 66.3164 197.049 66.3891 196.99 66.4764C196.932 66.5636 196.874 66.6655 196.816 66.7818C197.485 66.6364 198.474 66.3455 199.783 65.9091C201.092 65.4727 202.896 64.8327 205.194 63.9891C205.514 63.8727 205.834 63.9018 206.154 64.0764C206.503 64.2218 206.736 64.4691 206.852 64.8182C206.998 65.1382 206.998 65.4727 206.852 65.8218C206.707 66.1418 206.445 66.3746 206.067 66.52C204.729 66.9855 203.507 67.4073 202.401 67.7855C201.296 68.1636 200.307 68.4836 199.434 68.7455C198.27 69.0946 197.383 69.3418 196.772 69.4873C196.161 69.6036 195.696 69.6618 195.376 69.6618Z" fill="#00A9FF"/>
</svg>
