<svg width="64" height="64" viewBox="0 0 64 64" fill="none" xmlns="http://www.w3.org/2000/svg">
<path d="M16.5 13.25H39.625" stroke="#144B66" stroke-width="0.9375" stroke-linecap="round"/>
<path d="M19.625 18.25H42.75" stroke="#144B66" stroke-width="0.9375" stroke-linecap="round"/>
<path d="M16.5 23.25H39.625" stroke="#144B66" stroke-width="0.9375" stroke-linecap="round"/>
<path d="M19.625 28.25H42.75" stroke="#144B66" stroke-width="0.9375" stroke-linecap="round"/>
<path d="M16.5 33.25H39.625" stroke="#144B66" stroke-width="0.9375" stroke-linecap="round"/>
<path fill-rule="evenodd" clip-rule="evenodd" d="M44.375 8.25H13.125C12.0895 8.25 11.25 9.08947 11.25 10.125V19.5H10V10.125C10 8.39911 11.3991 7 13.125 7H44.375C46.1009 7 47.5 8.39911 47.5 10.125V48H46.25V10.125C46.25 9.08947 45.4105 8.25 44.375 8.25ZM10 22.5V53.875C10 55.6009 11.3991 57 13.125 57H44.375C45.7043 57 46.8397 56.17 47.2914 55H45.8751C45.5331 55.4554 44.9884 55.75 44.375 55.75H13.125C12.0895 55.75 11.25 54.9105 11.25 53.875V22.5H10Z" fill="#144B66"/>
<path d="M41.5 51C41.2239 51 41 51.2239 41 51.5C41 51.7761 41.2239 52 41.5 52V51ZM54.3536 51.8536C54.5488 51.6583 54.5488 51.3417 54.3536 51.1464L51.1716 47.9645C50.9763 47.7692 50.6597 47.7692 50.4645 47.9645C50.2692 48.1597 50.2692 48.4763 50.4645 48.6716L53.2929 51.5L50.4645 54.3284C50.2692 54.5237 50.2692 54.8403 50.4645 55.0355C50.6597 55.2308 50.9763 55.2308 51.1716 55.0355L54.3536 51.8536ZM41.5 52H54V51H41.5V52Z" fill="#144B66"/>
</svg>
